<svg xmlns="http://www.w3.org/2000/svg" viewBox="0 0 348 348" fill="none"><path d="M5.079 5.776h336.913v337.67H5.08z" stroke-width="2" stroke="#000"/><path d="M282.734 40.554c0-8.376 6.966-15.165 15.56-15.165 4.126 0 8.084 1.597 11.001 4.441 2.918 2.844 4.558 6.702 4.558 10.724 0 8.376-6.966 15.165-15.56 15.165-8.593 0-15.559-6.79-15.559-15.165z" stroke-width="2" stroke="#000"/><path style="fill:#000;fill-opacity:0;stroke:none;stroke-width:9.65549088;stroke-miterlimit:4;stroke-dasharray:none;stroke-opacity:1" d="M6.606 174.722V7.36h333.919v334.724H6.606Zm300.54-120.256c8.437-4.945 10.475-16.564 4.233-24.137-6.486-7.87-19.428-8.069-25.882-.398-2.999 3.564-3.824 5.948-3.824 11.055 0 7.113 4.669 13.15 11.994 15.505 3.493 1.122 9.698.19 13.479-2.025z" fill="none"/><path style="fill:#000;fill-opacity:1;stroke:none;stroke-width:9.65549088;stroke-miterlimit:4;stroke-dasharray:none;stroke-opacity:1" d="M6.606 174.722V7.36h333.919v334.724H6.606Zm300.54-120.256c8.437-4.945 10.475-16.564 4.233-24.137-6.486-7.87-19.428-8.069-25.882-.398-2.999 3.564-3.824 5.948-3.824 11.055 0 7.113 4.669 13.15 11.994 15.505 3.493 1.122 9.698.19 13.479-2.025z"/><path d="M-74.44 188.225V20.863h333.92v334.724H-74.44ZM226.1 67.97c8.438-4.945 10.476-16.564 4.234-24.137-6.487-7.87-19.428-8.068-25.882-.398-2.999 3.564-3.824 5.948-3.824 11.055-.001 7.113 4.669 13.15 11.994 15.505 3.492 1.123 9.698.19 13.478-2.025z" style="fill:#000;fill-opacity:0;stroke:none;stroke-width:9.65549088;stroke-miterlimit:4;stroke-dasharray:none;stroke-opacity:1" fill="none"/><path d="M-58.866 187.798V20.436h333.919V355.16H-58.866Zm300.54-120.256c8.437-4.945 10.475-16.564 4.233-24.137-6.486-7.87-19.428-8.069-25.882-.398-2.999 3.564-3.824 5.948-3.824 11.055 0 7.113 4.669 13.15 11.994 15.505 3.493 1.122 9.698.19 13.479-2.025z" style="fill:#000;fill-opacity:0;stroke:none;stroke-width:9.65549088;stroke-miterlimit:4;stroke-dasharray:none;stroke-opacity:1" fill="none"/><path d="M-46.916 177.805V10.443h333.919v334.724h-333.92Zm300.54-120.256c8.437-4.945 10.475-16.565 4.233-24.138-6.487-7.869-19.428-8.068-25.882-.397-2.999 3.563-3.824 5.948-3.824 11.054 0 7.114 4.669 13.15 11.994 15.505 3.493 1.123 9.698.19 13.478-2.024z" style="fill:#000;fill-opacity:0;stroke:none;stroke-width:9.65549088;stroke-miterlimit:4;stroke-dasharray:none;stroke-opacity:1" fill="none"/><path d="M-73.241 177.827V10.465h333.919V345.19h-333.92Zm300.54-120.256c8.437-4.945 10.475-16.564 4.233-24.137-6.487-7.87-19.428-8.069-25.882-.398-2.999 3.564-3.824 5.948-3.824 11.055-.001 7.113 4.669 13.15 11.994 15.505 3.492 1.122 9.698.19 13.478-2.025z" style="fill:#000;fill-opacity:0;stroke:none;stroke-width:9.65549088;stroke-miterlimit:4;stroke-dasharray:none;stroke-opacity:1" fill="none"/><path d="M-73.748 210.51V43.15H260.17v334.724H-73.75Zm300.54-120.255c8.437-4.945 10.475-16.565 4.233-24.138-6.487-7.869-19.428-8.068-25.882-.397-3 3.563-3.824 5.948-3.825 11.054 0 7.114 4.67 13.15 11.995 15.505 3.492 1.123 9.698.191 13.478-2.024z" style="fill:#000;fill-opacity:0;stroke:none;stroke-width:9.65549088;stroke-miterlimit:4;stroke-dasharray:none;stroke-opacity:1" fill="none"/><path d="M-74.677 166.839V-.523h333.919V334.2h-333.92Zm300.54-120.256c8.437-4.945 10.475-16.565 4.233-24.138-6.486-7.87-19.428-8.068-25.882-.397-2.999 3.563-3.824 5.948-3.824 11.054 0 7.114 4.669 13.15 11.994 15.505 3.493 1.123 9.698.19 13.478-2.024z" style="fill:#000;fill-opacity:0;stroke:none;stroke-width:9.65549088;stroke-miterlimit:4;stroke-dasharray:none;stroke-opacity:1" fill="none"/><path d="M-35.708 186.003V18.641H298.21v334.724H-35.71Zm300.54-120.256c8.437-4.945 10.475-16.564 4.233-24.137-6.487-7.87-19.428-8.068-25.882-.398-3 3.564-3.824 5.948-3.824 11.055-.001 7.113 4.668 13.15 11.994 15.505 3.492 1.122 9.698.19 13.478-2.025z" style="fill:#000;fill-opacity:0;stroke:none;stroke-width:9.65549088;stroke-miterlimit:4;stroke-dasharray:none;stroke-opacity:1" fill="none"/><path d="M-64.797 197.295V29.933h333.919v334.724h-333.92Zm300.54-120.256c8.437-4.945 10.475-16.565 4.233-24.138-6.487-7.869-19.428-8.068-25.882-.397-2.999 3.563-3.824 5.948-3.824 11.054-.001 7.114 4.669 13.15 11.994 15.505 3.492 1.123 9.698.19 13.478-2.024z" style="fill:#000;fill-opacity:0;stroke:none;stroke-width:9.65549088;stroke-miterlimit:4;stroke-dasharray:none;stroke-opacity:1" fill="none"/><path d="M-83.642 179.097V11.735h333.92V346.46h-333.92Zm300.54-120.256c8.438-4.945 10.476-16.564 4.234-24.137-6.487-7.87-19.428-8.068-25.883-.398-2.998 3.564-3.823 5.948-3.824 11.055 0 7.113 4.67 13.15 11.994 15.505 3.493 1.123 9.699.19 13.479-2.025z" style="fill:#000;fill-opacity:0;stroke:none;stroke-width:9.65549088;stroke-miterlimit:4;stroke-dasharray:none;stroke-opacity:1" fill="none"/><path d="M-56.761 199.166V31.804h333.919v334.724h-333.92ZM243.779 78.91c8.437-4.945 10.475-16.564 4.233-24.137-6.487-7.87-19.428-8.069-25.882-.398-2.999 3.564-3.824 5.948-3.824 11.055-.001 7.113 4.669 13.15 11.994 15.505 3.493 1.122 9.698.19 13.478-2.025z" style="fill:#000;fill-opacity:0;stroke:none;stroke-width:9.65549088;stroke-miterlimit:4;stroke-dasharray:none;stroke-opacity:1" fill="none"/><path d="M-39.596 205.45V38.088h333.919v334.724h-333.92Zm300.54-120.256c8.437-4.945 10.475-16.564 4.233-24.137-6.487-7.87-19.428-8.068-25.882-.398-3 3.564-3.824 5.948-3.824 11.055-.001 7.113 4.668 13.15 11.994 15.505 3.492 1.123 9.698.19 13.478-2.025z" style="fill:#000;fill-opacity:0;stroke:none;stroke-width:9.65549088;stroke-miterlimit:4;stroke-dasharray:none;stroke-opacity:1" fill="none"/><path d="M-77.161 187.58V20.218h333.919v334.724h-333.92Zm300.54-120.256c8.437-4.945 10.475-16.564 4.233-24.137-6.487-7.87-19.428-8.068-25.882-.398-2.999 3.564-3.824 5.948-3.824 11.055-.001 7.113 4.669 13.15 11.994 15.505 3.492 1.123 9.698.19 13.478-2.025z" style="fill:#000;fill-opacity:0;stroke:none;stroke-width:9.65549088;stroke-miterlimit:4;stroke-dasharray:none;stroke-opacity:1" fill="none"/><path d="M-49.663 212.13V44.768h333.92V379.49h-333.92Zm300.54-120.257c8.438-4.944 10.476-16.564 4.234-24.137-6.487-7.87-19.428-8.068-25.883-.398-2.998 3.564-3.823 5.949-3.824 11.055 0 7.114 4.67 13.15 11.994 15.505 3.493 1.123 9.699.19 13.479-2.025z" style="fill:#000;fill-opacity:0;stroke:none;stroke-width:9.65549088;stroke-miterlimit:4;stroke-dasharray:none;stroke-opacity:1" fill="none"/><path d="M-52.627 184.748V17.386h333.919V352.11h-333.92Zm300.54-120.256c8.437-4.945 10.475-16.564 4.233-24.137-6.487-7.87-19.428-8.068-25.882-.398-3 3.564-3.824 5.948-3.824 11.055-.001 7.113 4.668 13.15 11.994 15.505 3.492 1.123 9.698.19 13.478-2.025z" style="fill:#000;fill-opacity:0;stroke:none;stroke-width:9.65549088;stroke-miterlimit:4;stroke-dasharray:none;stroke-opacity:1" fill="none"/><path d="M-57.298 183.045V15.683h333.92V350.406h-333.92Zm300.54-120.256c8.438-4.945 10.476-16.565 4.233-24.138-6.486-7.87-19.427-8.068-25.882-.397-2.998 3.563-3.823 5.948-3.824 11.054 0 7.114 4.67 13.15 11.994 15.505 3.493 1.123 9.699.19 13.479-2.024z" style="fill:#000;fill-opacity:0;stroke:none;stroke-width:9.65549088;stroke-miterlimit:4;stroke-dasharray:none;stroke-opacity:1" fill="none"/><path d="M-79.598 213.992V46.63h333.92V381.353h-333.92Zm300.54-120.257c8.438-4.945 10.476-16.564 4.234-24.137-6.487-7.87-19.428-8.068-25.883-.398-2.998 3.564-3.823 5.949-3.824 11.055 0 7.114 4.67 13.15 11.994 15.505 3.493 1.123 9.699.19 13.479-2.025z" style="fill:#000;fill-opacity:0;stroke:none;stroke-width:9.65549088;stroke-miterlimit:4;stroke-dasharray:none;stroke-opacity:1" fill="none"/><path d="M-22.743 218.647V51.285h333.92V386.008h-333.92ZM277.797 98.39c8.438-4.945 10.476-16.565 4.233-24.138-6.486-7.87-19.427-8.068-25.882-.397-2.998 3.563-3.823 5.948-3.824 11.054 0 7.114 4.67 13.15 11.994 15.505 3.493 1.123 9.699.19 13.479-2.024z" style="fill:#000;fill-opacity:0;stroke:none;stroke-width:9.65549088;stroke-miterlimit:4;stroke-dasharray:none;stroke-opacity:1" fill="none"/><path d="M-52.137 223.088V55.726h333.919V390.45h-333.92Zm300.54-120.256c8.437-4.945 10.475-16.564 4.233-24.137-6.487-7.87-19.428-8.069-25.882-.398-2.999 3.564-3.824 5.948-3.824 11.055 0 7.113 4.669 13.15 11.994 15.505 3.493 1.122 9.698.19 13.478-2.025z" style="fill:#000;fill-opacity:0;stroke:none;stroke-width:9.65549088;stroke-miterlimit:4;stroke-dasharray:none;stroke-opacity:1" fill="none"/><path d="M-33.018 246.134V78.772h333.92V413.495h-333.92Zm300.54-120.257c8.438-4.944 10.476-16.564 4.233-24.137-6.486-7.87-19.427-8.068-25.882-.398-2.998 3.564-3.823 5.949-3.824 11.055 0 7.114 4.67 13.15 11.994 15.505 3.493 1.123 9.699.19 13.479-2.025z" style="fill:#000;fill-opacity:0;stroke:none;stroke-width:9.65549088;stroke-miterlimit:4;stroke-dasharray:none;stroke-opacity:1" fill="none"/><path d="M-49.996 258.782V91.421h333.92V426.144h-333.92Zm300.54-120.256c8.438-4.945 10.476-16.564 4.233-24.137-6.486-7.87-19.427-8.068-25.882-.398-2.998 3.564-3.823 5.949-3.824 11.055 0 7.114 4.67 13.15 11.994 15.505 3.493 1.123 9.699.19 13.479-2.025z" style="fill:#000;fill-opacity:0;stroke:none;stroke-width:9.65549088;stroke-miterlimit:4;stroke-dasharray:none;stroke-opacity:1" fill="none"/><path d="M-45.055 211.51V44.148h333.92v334.724h-333.92Zm300.54-120.256c8.438-4.945 10.476-16.565 4.233-24.138-6.486-7.869-19.428-8.068-25.882-.397-2.999 3.563-3.823 5.948-3.824 11.054 0 7.114 4.669 13.15 11.994 15.505 3.493 1.123 9.699.191 13.479-2.024z" style="fill:#000;fill-opacity:0;stroke:none;stroke-width:9.65549088;stroke-miterlimit:4;stroke-dasharray:none;stroke-opacity:1" fill="none"/><path d="M-43.86 257.714V90.353h333.92V425.076H-43.86Zm300.54-120.256c8.437-4.945 10.475-16.564 4.233-24.137-6.486-7.87-19.428-8.068-25.882-.398-2.999 3.564-3.824 5.949-3.824 11.055 0 7.114 4.669 13.15 11.994 15.505 3.493 1.123 9.698.19 13.479-2.025z" style="fill:#000;fill-opacity:0;stroke:none;stroke-width:9.65549088;stroke-miterlimit:4;stroke-dasharray:none;stroke-opacity:1" fill="none"/><path d="M-65.327 231.677V64.315h333.919V399.04h-333.92Zm300.54-120.256c8.437-4.945 10.475-16.564 4.233-24.137-6.487-7.87-19.428-8.068-25.882-.398-3 3.564-3.824 5.948-3.825 11.055 0 7.113 4.67 13.15 11.995 15.505 3.492 1.123 9.698.19 13.478-2.025z" style="fill:#000;fill-opacity:0;stroke:none;stroke-width:9.65549088;stroke-miterlimit:4;stroke-dasharray:none;stroke-opacity:1" fill="none"/><path d="M-42.771 235.92V68.558h333.919v334.724h-333.92Zm300.54-120.256c8.437-4.945 10.475-16.564 4.233-24.137-6.487-7.87-19.428-8.068-25.882-.398-2.999 3.564-3.824 5.948-3.824 11.055-.001 7.113 4.669 13.15 11.994 15.505 3.492 1.123 9.698.19 13.478-2.025z" style="fill:#000;fill-opacity:0;stroke:none;stroke-width:9.65549088;stroke-miterlimit:4;stroke-dasharray:none;stroke-opacity:1" fill="none"/><path d="M-37.113 262.932V95.57h333.919v334.724h-333.92Zm300.54-120.256c8.437-4.945 10.475-16.564 4.233-24.137-6.487-7.87-19.428-8.068-25.882-.398-2.999 3.564-3.824 5.948-3.824 11.055-.001 7.113 4.669 13.15 11.994 15.505 3.492 1.123 9.698.19 13.478-2.025z" style="fill:#000;fill-opacity:0;stroke:none;stroke-width:9.65549088;stroke-miterlimit:4;stroke-dasharray:none;stroke-opacity:1" fill="none"/><path d="M-43.04 235.817V68.455h333.919V403.18h-333.92ZM257.5 115.561c8.437-4.945 10.475-16.564 4.233-24.137-6.487-7.87-19.428-8.069-25.882-.398-2.999 3.564-3.824 5.948-3.824 11.055-.001 7.113 4.669 13.15 11.994 15.505 3.493 1.122 9.698.19 13.478-2.025z" style="fill:#000;fill-opacity:0;stroke:none;stroke-width:9.65549088;stroke-miterlimit:4;stroke-dasharray:none;stroke-opacity:1" fill="none"/><path d="M-37.447 263.324V95.962h333.919v334.724h-333.92Zm300.54-120.256c8.437-4.945 10.475-16.564 4.233-24.137-6.487-7.87-19.428-8.069-25.882-.398-2.999 3.564-3.824 5.948-3.824 11.055 0 7.113 4.669 13.15 11.994 15.504 3.493 1.123 9.698.191 13.478-2.024z" style="fill:#000;fill-opacity:0;stroke:none;stroke-width:9.65549088;stroke-miterlimit:4;stroke-dasharray:none;stroke-opacity:1" fill="none"/><path d="M-15.013 259.656V92.294h333.92v334.724h-333.92ZM285.527 139.4c8.438-4.945 10.476-16.565 4.233-24.138-6.486-7.869-19.428-8.068-25.882-.397-2.999 3.563-3.823 5.948-3.824 11.054 0 7.114 4.669 13.15 11.994 15.505 3.493 1.123 9.699.19 13.479-2.024z" style="fill:#000;fill-opacity:0;stroke:none;stroke-width:9.65549088;stroke-miterlimit:4;stroke-dasharray:none;stroke-opacity:1" fill="none"/><path d="M-54.3 249.812V82.45h333.919v334.724h-333.92Zm300.539-120.256c8.438-4.945 10.476-16.565 4.233-24.138-6.486-7.869-19.427-8.068-25.882-.397-2.998 3.563-3.823 5.948-3.824 11.054 0 7.114 4.67 13.15 11.994 15.505 3.493 1.123 9.699.19 13.479-2.024z" style="fill:#000;fill-opacity:0;stroke:none;stroke-width:9.65549088;stroke-miterlimit:4;stroke-dasharray:none;stroke-opacity:1" fill="none"/><path d="M-49.077 265.07V97.708h333.919v334.724h-333.92Zm300.54-120.256c8.437-4.945 10.475-16.564 4.233-24.137-6.487-7.87-19.428-8.068-25.882-.398-3 3.564-3.824 5.948-3.824 11.055-.001 7.114 4.668 13.15 11.994 15.505 3.492 1.123 9.698.19 13.478-2.025z" style="fill:#000;fill-opacity:0;stroke:none;stroke-width:9.65549088;stroke-miterlimit:4;stroke-dasharray:none;stroke-opacity:1" fill="none"/><path d="M1.406 252.51V85.148h333.92V419.87H1.405Zm300.54-120.257c8.438-4.945 10.476-16.564 4.234-24.137-6.487-7.87-19.428-8.068-25.883-.398-2.998 3.564-3.823 5.949-3.824 11.055 0 7.114 4.67 13.15 11.994 15.505 3.493 1.123 9.699.19 13.479-2.025z" style="fill:#000;fill-opacity:0;stroke:none;stroke-width:9.65549088;stroke-miterlimit:4;stroke-dasharray:none;stroke-opacity:1" fill="none"/><path d="M-7.777 265.916V98.555h333.92V433.278H-7.778Zm300.54-120.256c8.438-4.945 10.476-16.564 4.234-24.137-6.487-7.87-19.428-8.068-25.883-.398-2.998 3.564-3.823 5.949-3.824 11.055 0 7.114 4.67 13.15 11.994 15.505 3.493 1.123 9.699.19 13.479-2.025z" style="fill:#000;fill-opacity:0;stroke:none;stroke-width:9.65549088;stroke-miterlimit:4;stroke-dasharray:none;stroke-opacity:1" fill="none"/><path d="M-11.52 259.197V91.835h333.919v334.724h-333.92ZM289.02 138.94c8.437-4.945 10.475-16.565 4.233-24.138-6.487-7.869-19.428-8.068-25.882-.397-2.999 3.563-3.824 5.948-3.824 11.054-.001 7.114 4.669 13.15 11.994 15.505 3.492 1.123 9.698.19 13.478-2.024z" style="fill:#000;fill-opacity:0;stroke:none;stroke-width:9.65549088;stroke-miterlimit:4;stroke-dasharray:none;stroke-opacity:1" fill="none"/><path d="M-6.375 254.636V87.274h333.92v334.724H-6.376Zm300.54-120.256c8.438-4.945 10.476-16.564 4.233-24.137-6.486-7.87-19.428-8.069-25.882-.398-2.999 3.564-3.823 5.948-3.824 11.055 0 7.113 4.669 13.15 11.994 15.504 3.493 1.123 9.699.191 13.479-2.024z" style="fill:#000;fill-opacity:0;stroke:none;stroke-width:9.65549088;stroke-miterlimit:4;stroke-dasharray:none;stroke-opacity:1" fill="none"/><path d="M-16.153 243.257V75.895h333.919V410.62h-333.92Zm300.54-120.256c8.437-4.945 10.475-16.564 4.233-24.137-6.486-7.87-19.428-8.068-25.882-.398-2.999 3.564-3.824 5.948-3.824 11.055 0 7.113 4.669 13.15 11.994 15.505 3.493 1.122 9.698.19 13.479-2.025z" style="fill:#000;fill-opacity:0;stroke:none;stroke-width:9.65549088;stroke-miterlimit:4;stroke-dasharray:none;stroke-opacity:1" fill="none"/><path d="M-22.409 265.14V97.778h333.92v334.724H-22.41Zm300.54-120.256c8.438-4.945 10.476-16.564 4.233-24.137-6.486-7.87-19.427-8.069-25.882-.398-2.998 3.564-3.823 5.948-3.824 11.055 0 7.113 4.67 13.15 11.994 15.505 3.493 1.122 9.699.19 13.479-2.025z" style="fill:#000;fill-opacity:0;stroke:none;stroke-width:9.65549088;stroke-miterlimit:4;stroke-dasharray:none;stroke-opacity:1" fill="none"/><path d="M9.567 155.147V-12.214h333.919V322.509H9.566Zm300.54-120.256c8.437-4.945 10.475-16.564 4.233-24.137-6.487-7.87-19.428-8.068-25.882-.398-2.999 3.564-3.824 5.949-3.824 11.055 0 7.114 4.669 13.15 11.994 15.505 3.493 1.123 9.698.19 13.478-2.025z" style="fill:#000;fill-opacity:0;stroke:none;stroke-width:9.65549088;stroke-miterlimit:4;stroke-dasharray:none;stroke-opacity:1" fill="none"/><path d="M-4.52 163.65V-3.714h333.919v334.724H-4.52ZM296.02 43.392c8.437-4.945 10.475-16.564 4.233-24.137-6.486-7.87-19.428-8.068-25.882-.398-2.999 3.564-3.824 5.948-3.824 11.055 0 7.113 4.669 13.15 11.994 15.505 3.493 1.123 9.698.19 13.479-2.025z" style="fill:#000;fill-opacity:0;stroke:none;stroke-width:9.65549088;stroke-miterlimit:4;stroke-dasharray:none;stroke-opacity:1" fill="none"/><path d="M-11.314 193.538V26.177h333.92V360.9h-333.92Zm300.54-120.256c8.438-4.945 10.476-16.564 4.234-24.137-6.487-7.87-19.428-8.068-25.883-.398-2.998 3.564-3.823 5.949-3.824 11.055 0 7.114 4.67 13.15 11.994 15.505 3.493 1.123 9.699.19 13.479-2.025z" style="fill:#000;fill-opacity:0;stroke:none;stroke-width:9.65549088;stroke-miterlimit:4;stroke-dasharray:none;stroke-opacity:1" fill="none"/><path d="M31.654 171.814V4.452h333.919v334.724H31.653Zm300.54-120.256c8.437-4.945 10.475-16.564 4.233-24.137-6.487-7.87-19.428-8.069-25.882-.398-2.999 3.564-3.824 5.948-3.824 11.054-.001 7.114 4.669 13.15 11.994 15.505 3.492 1.123 9.698.191 13.478-2.024z" style="fill:#000;fill-opacity:0;stroke:none;stroke-width:9.65549088;stroke-miterlimit:4;stroke-dasharray:none;stroke-opacity:1" fill="none"/><path d="M-13.977 155.992V-11.37h333.92v334.724h-333.92Zm300.54-120.256c8.438-4.945 10.476-16.564 4.233-24.137-6.486-7.87-19.428-8.068-25.882-.398-2.999 3.564-3.823 5.948-3.824 11.055 0 7.113 4.669 13.15 11.994 15.505 3.493 1.122 9.699.19 13.479-2.025z" style="fill:#000;fill-opacity:0;stroke:none;stroke-width:9.65549088;stroke-miterlimit:4;stroke-dasharray:none;stroke-opacity:1" fill="none"/><path d="M-16.399 190.768V23.406h333.92V358.13H-16.4Zm300.54-120.256c8.438-4.945 10.476-16.564 4.233-24.137-6.486-7.87-19.428-8.068-25.882-.398-2.999 3.564-3.823 5.948-3.824 11.055 0 7.113 4.669 13.15 11.994 15.505 3.493 1.123 9.699.19 13.479-2.025z" style="fill:#000;fill-opacity:0;stroke:none;stroke-width:9.65549088;stroke-miterlimit:4;stroke-dasharray:none;stroke-opacity:1" fill="none"/><path d="M3.635 140.346V-27.016h333.919v334.724H3.634ZM304.175 20.09c8.437-4.945 10.475-16.564 4.233-24.137-6.487-7.87-19.428-8.068-25.882-.398-2.999 3.564-3.824 5.948-3.824 11.055-.001 7.113 4.669 13.15 11.994 15.505 3.492 1.123 9.698.19 13.478-2.025z" style="fill:#000;fill-opacity:0;stroke:none;stroke-width:9.65549088;stroke-miterlimit:4;stroke-dasharray:none;stroke-opacity:1" fill="none"/><path d="M-5.479 157.236V-10.126h333.92v334.724H-5.48ZM295.061 36.98c8.438-4.945 10.476-16.564 4.233-24.137-6.486-7.87-19.428-8.069-25.882-.398-2.999 3.564-3.823 5.948-3.824 11.054 0 7.114 4.669 13.15 11.994 15.505 3.493 1.123 9.699.191 13.479-2.024z" style="fill:#000;fill-opacity:0;stroke:none;stroke-width:9.65549088;stroke-miterlimit:4;stroke-dasharray:none;stroke-opacity:1" fill="none"/><path d="M-20.39 168.686V1.324h333.919v334.724h-333.92ZM280.148 48.43c8.438-4.945 10.476-16.565 4.233-24.137-6.486-7.87-19.427-8.069-25.882-.398-2.998 3.564-3.823 5.948-3.824 11.054 0 7.114 4.67 13.15 11.994 15.505 3.493 1.123 9.699.191 13.479-2.024z" style="fill:#000;fill-opacity:0;stroke:none;stroke-width:9.65549088;stroke-miterlimit:4;stroke-dasharray:none;stroke-opacity:1" fill="none"/><path d="M-19.294 174.18V6.817h333.92V341.54h-333.92Zm300.54-120.257c8.438-4.945 10.476-16.564 4.234-24.137-6.487-7.87-19.428-8.068-25.883-.398-2.998 3.564-3.823 5.949-3.824 11.055 0 7.114 4.67 13.15 11.994 15.505 3.493 1.123 9.699.19 13.479-2.025z" style="fill:#000;fill-opacity:0;stroke:none;stroke-width:9.65549088;stroke-miterlimit:4;stroke-dasharray:none;stroke-opacity:1" fill="none"/><path d="M-22.629 131.122V-36.24h333.92v334.724H-22.63Zm300.54-120.256c8.438-4.945 10.476-16.564 4.234-24.137-6.487-7.87-19.428-8.068-25.882-.398-3 3.564-3.824 5.948-3.825 11.055 0 7.113 4.67 13.15 11.995 15.505 3.492 1.122 9.698.19 13.478-2.025z" style="fill:#000;fill-opacity:0;stroke:none;stroke-width:9.65549088;stroke-miterlimit:4;stroke-dasharray:none;stroke-opacity:1" fill="none"/><path d="M-32.713 163.982V-3.38h333.92v334.724h-333.92Zm300.54-120.256c8.438-4.945 10.476-16.564 4.234-24.137-6.487-7.87-19.428-8.068-25.883-.398-2.998 3.564-3.823 5.948-3.824 11.055 0 7.113 4.67 13.15 11.994 15.505 3.493 1.123 9.699.19 13.479-2.025z" style="fill:#000;fill-opacity:0;stroke:none;stroke-width:9.65549088;stroke-miterlimit:4;stroke-dasharray:none;stroke-opacity:1" fill="none"/><path d="M-36.225 173.638V6.276h333.919V341h-333.92Zm300.54-120.256c8.437-4.945 10.475-16.564 4.233-24.137-6.487-7.87-19.428-8.068-25.882-.398-2.999 3.564-3.824 5.948-3.824 11.055 0 7.113 4.669 13.15 11.994 15.505 3.493 1.123 9.698.19 13.478-2.025z" style="fill:#000;fill-opacity:0;stroke:none;stroke-width:9.65549088;stroke-miterlimit:4;stroke-dasharray:none;stroke-opacity:1" fill="none"/><path d="M-62.333 167.263V-.1h333.919V334.624h-333.92Zm300.54-120.256c8.437-4.945 10.475-16.565 4.233-24.138-6.487-7.87-19.428-8.068-25.882-.397-2.999 3.563-3.824 5.948-3.824 11.054 0 7.114 4.669 13.15 11.994 15.505 3.493 1.123 9.698.19 13.478-2.024z" style="fill:#000;fill-opacity:0;stroke:none;stroke-width:9.65549088;stroke-miterlimit:4;stroke-dasharray:none;stroke-opacity:1" fill="none"/><path d="M-29.344 130.865V-36.497h333.919v334.724h-333.92Zm300.54-120.256c8.437-4.945 10.475-16.564 4.233-24.137-6.487-7.87-19.428-8.069-25.882-.398-2.999 3.564-3.824 5.948-3.824 11.055 0 7.113 4.669 13.15 11.994 15.504 3.493 1.123 9.698.191 13.478-2.024z" style="fill:#000;fill-opacity:0;stroke:none;stroke-width:9.65549088;stroke-miterlimit:4;stroke-dasharray:none;stroke-opacity:1" fill="none"/><path d="M-41.096 158.373V-8.99h333.92v334.724h-333.92Zm300.54-120.256c8.438-4.945 10.476-16.564 4.233-24.137-6.486-7.87-19.428-8.069-25.882-.398-2.999 3.564-3.823 5.948-3.824 11.054 0 7.114 4.669 13.15 11.994 15.505 3.493 1.123 9.699.191 13.479-2.024z" style="fill:#000;fill-opacity:0;stroke:none;stroke-width:9.65549088;stroke-miterlimit:4;stroke-dasharray:none;stroke-opacity:1" fill="none"/><path d="M-47.404 141.464V-25.898h333.92V308.825h-333.92Zm300.54-120.257c8.438-4.945 10.476-16.564 4.233-24.137-6.486-7.87-19.427-8.068-25.882-.398-2.998 3.564-3.823 5.949-3.824 11.055 0 7.114 4.67 13.15 11.994 15.505 3.493 1.123 9.699.19 13.479-2.025z" style="fill:#000;fill-opacity:0;stroke:none;stroke-width:9.65549088;stroke-miterlimit:4;stroke-dasharray:none;stroke-opacity:1" fill="none"/><path d="M-54.516 163.93V-3.432h333.92v334.724h-333.92Zm300.54-120.256c8.438-4.945 10.476-16.564 4.233-24.137-6.486-7.87-19.428-8.069-25.882-.398-2.999 3.564-3.823 5.948-3.824 11.054 0 7.114 4.669 13.15 11.994 15.505 3.493 1.123 9.699.191 13.479-2.024z" style="fill:#000;fill-opacity:0;stroke:none;stroke-width:9.65549088;stroke-miterlimit:4;stroke-dasharray:none;stroke-opacity:1" fill="none"/><path d="M-51.62 127.127V-40.234H282.3V294.489H-51.62ZM248.92 6.871c8.438-4.945 10.476-16.564 4.234-24.137-6.487-7.87-19.428-8.068-25.882-.398-2.999 3.564-3.824 5.949-3.824 11.055-.001 7.114 4.669 13.15 11.994 15.505 3.492 1.123 9.698.19 13.478-2.025z" style="fill:#000;fill-opacity:0;stroke:none;stroke-width:9.65549088;stroke-miterlimit:4;stroke-dasharray:none;stroke-opacity:1" fill="none"/><path d="M-31.548 161.72V-5.644H302.37v334.724H-31.55Zm300.54-120.257c8.437-4.945 10.475-16.564 4.233-24.137-6.487-7.87-19.428-8.068-25.882-.398-3 3.564-3.824 5.948-3.824 11.055-.001 7.113 4.668 13.15 11.994 15.505 3.492 1.122 9.698.19 13.478-2.025z" style="fill:#000;fill-opacity:0;stroke:none;stroke-width:9.65549088;stroke-miterlimit:4;stroke-dasharray:none;stroke-opacity:1" fill="none"/><path d="M-38.021 161.707V-5.655h333.919V329.07h-333.92Zm300.54-120.256c8.437-4.945 10.475-16.564 4.233-24.137-6.487-7.87-19.428-8.068-25.882-.398-3 3.564-3.824 5.948-3.824 11.055-.001 7.113 4.668 13.15 11.994 15.505 3.492 1.122 9.698.19 13.478-2.025z" style="fill:#000;fill-opacity:0;stroke:none;stroke-width:9.65549088;stroke-miterlimit:4;stroke-dasharray:none;stroke-opacity:1" fill="none"/><path d="M-60.17 126.205V-41.156h333.92V293.567H-60.17ZM240.37 5.95c8.438-4.945 10.476-16.564 4.233-24.137-6.486-7.87-19.427-8.068-25.882-.398-2.998 3.564-3.823 5.949-3.824 11.055 0 7.114 4.67 13.15 11.994 15.505 3.493 1.123 9.699.19 13.479-2.025z" style="fill:#000;fill-opacity:0;stroke:none;stroke-width:9.65549088;stroke-miterlimit:4;stroke-dasharray:none;stroke-opacity:1" fill="none"/><path d="M-27.875 151.928V-15.434h333.919V319.289h-333.92ZM272.665 31.67c8.437-4.944 10.475-16.564 4.233-24.137-6.486-7.87-19.428-8.068-25.882-.398-2.999 3.564-3.824 5.949-3.824 11.055 0 7.114 4.669 13.15 11.994 15.505 3.493 1.123 9.698.19 13.479-2.025z" style="fill:#000;fill-opacity:0;stroke:none;stroke-width:9.65549088;stroke-miterlimit:4;stroke-dasharray:none;stroke-opacity:1" fill="none"/><path d="M-58.122 114.985V-52.377h333.92v334.724h-333.92ZM242.418-5.27c8.438-4.945 10.476-16.564 4.234-24.137-6.487-7.87-19.428-8.068-25.883-.398-2.998 3.564-3.823 5.948-3.824 11.055 0 7.113 4.67 13.15 11.994 15.505 3.493 1.123 9.699.19 13.479-2.025z" style="fill:#000;fill-opacity:0;stroke:none;stroke-width:9.65549088;stroke-miterlimit:4;stroke-dasharray:none;stroke-opacity:1" fill="none"/><path d="M-18.947 142.112V-25.25h333.919v334.724h-333.92Zm300.54-120.256c8.437-4.945 10.475-16.564 4.233-24.137-6.487-7.87-19.428-8.068-25.882-.398-2.999 3.564-3.824 5.948-3.824 11.055-.001 7.113 4.669 13.15 11.994 15.505 3.493 1.122 9.698.19 13.478-2.025z" style="fill:#000;fill-opacity:0;stroke:none;stroke-width:9.65549088;stroke-miterlimit:4;stroke-dasharray:none;stroke-opacity:1" fill="none"/><path d="M-52.175 107.284V-60.078h333.92v334.724h-333.92Zm300.54-120.256c8.438-4.945 10.476-16.564 4.233-24.137-6.486-7.87-19.428-8.069-25.882-.398-2.999 3.564-3.823 5.948-3.824 11.055 0 7.113 4.669 13.15 11.994 15.505 3.493 1.122 9.699.19 13.479-2.025z" style="fill:#000;fill-opacity:0;stroke:none;stroke-width:9.65549088;stroke-miterlimit:4;stroke-dasharray:none;stroke-opacity:1" fill="none"/><path d="M-32.628 111.414V-55.948h333.92v334.724h-333.92ZM267.912-8.842c8.438-4.945 10.476-16.564 4.234-24.137-6.487-7.87-19.428-8.069-25.883-.398-2.998 3.564-3.823 5.948-3.824 11.055 0 7.113 4.67 13.15 11.994 15.505 3.493 1.122 9.699.19 13.479-2.025z" style="fill:#000;fill-opacity:0;stroke:none;stroke-width:9.65549088;stroke-miterlimit:4;stroke-dasharray:none;stroke-opacity:1" fill="none"/><path d="M-41.58 137.414V-29.948h333.92v334.724H-41.58ZM258.96 17.158c8.438-4.945 10.476-16.564 4.234-24.137-6.487-7.87-19.428-8.068-25.882-.398-2.999 3.564-3.824 5.948-3.824 11.055 0 7.113 4.669 13.15 11.994 15.505 3.493 1.122 9.698.19 13.478-2.025z" style="fill:#000;fill-opacity:0;stroke:none;stroke-width:9.65549088;stroke-miterlimit:4;stroke-dasharray:none;stroke-opacity:1" fill="none"/><path d="M-47.622 127.519V-39.843h333.919v334.724h-333.92ZM252.918 7.263c8.437-4.945 10.475-16.564 4.233-24.137-6.487-7.87-19.428-8.069-25.882-.398-2.999 3.564-3.824 5.948-3.824 11.055-.001 7.113 4.669 13.15 11.994 15.505 3.492 1.122 9.698.19 13.478-2.025z" style="fill:#000;fill-opacity:0;stroke:none;stroke-width:9.65549088;stroke-miterlimit:4;stroke-dasharray:none;stroke-opacity:1" fill="none"/><path d="M-35.268 142.39V-24.97h333.92V309.752h-333.92Zm300.54-120.256c8.437-4.945 10.475-16.564 4.233-24.137-6.486-7.87-19.428-8.068-25.882-.398-2.999 3.564-3.824 5.949-3.824 11.055 0 7.114 4.669 13.15 11.994 15.505 3.493 1.123 9.699.19 13.479-2.025z" style="fill:#000;fill-opacity:0;stroke:none;stroke-width:9.65549088;stroke-miterlimit:4;stroke-dasharray:none;stroke-opacity:1" fill="none"/><path d="M-49.9 132.885V-34.477h333.92v334.724H-49.9ZM250.64 12.629c8.438-4.945 10.476-16.564 4.234-24.137-6.487-7.87-19.428-8.069-25.883-.398-2.998 3.564-3.823 5.948-3.824 11.054 0 7.114 4.67 13.15 11.994 15.505 3.493 1.123 9.699.191 13.479-2.024z" style="fill:#000;fill-opacity:0;stroke:none;stroke-width:9.65549088;stroke-miterlimit:4;stroke-dasharray:none;stroke-opacity:1" fill="none"/><path d="M-24.524 133.232V-34.13h333.919v334.724h-333.92Zm300.54-120.256c8.437-4.945 10.475-16.564 4.233-24.137-6.487-7.87-19.428-8.069-25.882-.398-2.999 3.564-3.824 5.948-3.824 11.054-.001 7.114 4.669 13.15 11.994 15.505 3.492 1.123 9.698.191 13.478-2.024z" style="fill:#000;fill-opacity:0;stroke:none;stroke-width:9.65549088;stroke-miterlimit:4;stroke-dasharray:none;stroke-opacity:1" fill="none"/><path d="M-5.647 110.243V-57.119h333.919v334.724H-5.648Zm300.54-120.256c8.437-4.945 10.475-16.564 4.233-24.137-6.487-7.87-19.428-8.069-25.882-.398-2.999 3.564-3.824 5.948-3.824 11.055 0 7.113 4.669 13.15 11.994 15.505 3.493 1.122 9.698.19 13.478-2.025z" style="fill:#000;fill-opacity:0;stroke:none;stroke-width:9.65549088;stroke-miterlimit:4;stroke-dasharray:none;stroke-opacity:1" fill="none"/><path d="M-12.282 108.236V-59.126h333.919v334.724h-333.92ZM288.258-12.02c8.437-4.945 10.475-16.565 4.233-24.138-6.486-7.869-19.428-8.068-25.882-.397-2.999 3.563-3.824 5.948-3.824 11.054 0 7.114 4.669 13.15 11.994 15.505 3.493 1.123 9.698.19 13.478-2.024z" style="fill:#000;fill-opacity:0;stroke:none;stroke-width:9.65549088;stroke-miterlimit:4;stroke-dasharray:none;stroke-opacity:1" fill="none"/><path d="M.492 122.44V-44.924h333.92v334.724H.491ZM301.032 2.182c8.438-4.945 10.476-16.564 4.234-24.137-6.487-7.87-19.428-8.068-25.883-.398-2.998 3.564-3.823 5.948-3.824 11.055 0 7.114 4.67 13.15 11.994 15.505 3.493 1.123 9.699.19 13.479-2.025z" style="fill:#000;fill-opacity:0;stroke:none;stroke-width:9.65549088;stroke-miterlimit:4;stroke-dasharray:none;stroke-opacity:1" fill="none"/><path d="M-30.5 102.05V-65.314h333.92v334.724H-30.5ZM270.04-18.208c8.438-4.945 10.476-16.564 4.234-24.137-6.487-7.87-19.428-8.068-25.882-.398-3 3.564-3.824 5.948-3.824 11.055-.001 7.113 4.668 13.15 11.994 15.505 3.492 1.123 9.698.19 13.478-2.025z" style="fill:#000;fill-opacity:0;stroke:none;stroke-width:9.65549088;stroke-miterlimit:4;stroke-dasharray:none;stroke-opacity:1" fill="none"/><path d="M-34.882 139.108V-28.254h333.92V306.47h-333.92Zm300.54-120.256c8.438-4.945 10.476-16.564 4.233-24.137-6.486-7.87-19.427-8.068-25.882-.398-2.998 3.564-3.823 5.948-3.824 11.055 0 7.113 4.67 13.15 11.994 15.505 3.493 1.123 9.699.19 13.479-2.025z" style="fill:#000;fill-opacity:0;stroke:none;stroke-width:9.65549088;stroke-miterlimit:4;stroke-dasharray:none;stroke-opacity:1" fill="none"/><path d="M-15.079 117.49V-49.872h333.92v334.724H-15.08ZM285.461-2.766c8.438-4.945 10.476-16.564 4.233-24.137-6.486-7.87-19.428-8.069-25.882-.398-2.999 3.564-3.823 5.948-3.824 11.055 0 7.113 4.669 13.15 11.994 15.505 3.493 1.122 9.699.19 13.479-2.025z" style="fill:#000;fill-opacity:0;stroke:none;stroke-width:9.65549088;stroke-miterlimit:4;stroke-dasharray:none;stroke-opacity:1" fill="none"/><path d="M-8.206 117.828V-49.534h333.919V285.19H-8.207ZM292.334-2.428c8.437-4.945 10.475-16.564 4.233-24.137-6.487-7.87-19.428-8.069-25.882-.398-2.999 3.564-3.824 5.948-3.824 11.055 0 7.113 4.669 13.15 11.994 15.504 3.493 1.123 9.698.191 13.478-2.024z" style="fill:#000;fill-opacity:0;stroke:none;stroke-width:9.65549088;stroke-miterlimit:4;stroke-dasharray:none;stroke-opacity:1" fill="none"/><path d="M.06 137.96V-29.402h333.92v334.724H.06ZM300.6 17.704c8.438-4.945 10.476-16.564 4.234-24.137-6.487-7.87-19.428-8.069-25.882-.398-3 3.564-3.824 5.948-3.824 11.055-.001 7.113 4.668 13.15 11.994 15.505 3.492 1.122 9.698.19 13.478-2.025z" style="fill:#000;fill-opacity:0;stroke:none;stroke-width:9.65549088;stroke-miterlimit:4;stroke-dasharray:none;stroke-opacity:1" fill="none"/><path d="M-10.503 162.28V-5.08h333.919v334.724h-333.92Zm300.54-120.255c8.437-4.945 10.475-16.565 4.233-24.138-6.487-7.869-19.428-8.068-25.882-.397-2.999 3.563-3.824 5.948-3.824 11.054-.001 7.114 4.669 13.15 11.994 15.505 3.492 1.123 9.698.19 13.478-2.024z" style="fill:#000;fill-opacity:0;stroke:none;stroke-width:9.65549088;stroke-miterlimit:4;stroke-dasharray:none;stroke-opacity:1" fill="none"/><path d="M-23.071 159.121V-8.24h333.919V326.483h-333.92Zm300.54-120.256c8.437-4.945 10.475-16.564 4.233-24.137-6.486-7.87-19.428-8.068-25.882-.398-2.999 3.564-3.824 5.949-3.824 11.055 0 7.114 4.669 13.15 11.994 15.505 3.493 1.123 9.698.19 13.479-2.025z" style="fill:#000;fill-opacity:0;stroke:none;stroke-width:9.65549088;stroke-miterlimit:4;stroke-dasharray:none;stroke-opacity:1" fill="none"/><path d="M-10.585 154.881V-12.48h333.92v334.724h-333.92Zm300.54-120.256c8.438-4.945 10.476-16.564 4.234-24.137-6.487-7.87-19.428-8.068-25.883-.398-2.998 3.564-3.823 5.948-3.824 11.055 0 7.113 4.67 13.15 11.994 15.505 3.493 1.122 9.699.19 13.479-2.025z" style="fill:#000;fill-opacity:0;stroke:none;stroke-width:9.65549088;stroke-miterlimit:4;stroke-dasharray:none;stroke-opacity:1" fill="none"/><path d="M3.038 156.79V-10.572h333.919v334.724H3.037Zm300.54-120.256c8.437-4.945 10.475-16.564 4.233-24.137-6.486-7.87-19.428-8.069-25.882-.398-2.999 3.564-3.824 5.948-3.824 11.055 0 7.113 4.669 13.15 11.994 15.505 3.493 1.122 9.698.19 13.478-2.025z" style="fill:#000;fill-opacity:0;stroke:none;stroke-width:9.65549088;stroke-miterlimit:4;stroke-dasharray:none;stroke-opacity:1" fill="none"/><path d="M-1.357 195.69V28.327h333.919V363.05H-1.358Zm300.54-120.257c8.437-4.945 10.475-16.564 4.233-24.137-6.487-7.87-19.428-8.068-25.882-.398-2.999 3.564-3.824 5.949-3.824 11.055 0 7.114 4.669 13.15 11.994 15.505 3.493 1.123 9.698.19 13.478-2.025z" style="fill:#000;fill-opacity:0;stroke:none;stroke-width:9.65549088;stroke-miterlimit:4;stroke-dasharray:none;stroke-opacity:1" fill="none"/><path d="M-20.816 187.733V20.37h333.92v334.724h-333.92Zm300.54-120.256c8.438-4.945 10.476-16.564 4.234-24.137-6.487-7.87-19.428-8.069-25.883-.398-2.998 3.564-3.823 5.948-3.824 11.055 0 7.113 4.67 13.15 11.994 15.504 3.493 1.123 9.699.191 13.479-2.024z" style="fill:#000;fill-opacity:0;stroke:none;stroke-width:9.65549088;stroke-miterlimit:4;stroke-dasharray:none;stroke-opacity:1" fill="none"/><path d="M-6.552 160.794V-6.568h333.92v334.724H-6.553Zm300.54-120.256c8.438-4.945 10.476-16.565 4.234-24.138-6.487-7.869-19.428-8.068-25.883-.397-2.998 3.563-3.823 5.948-3.824 11.054 0 7.114 4.67 13.15 11.994 15.505 3.493 1.123 9.699.19 13.479-2.024z" style="fill:#000;fill-opacity:0;stroke:none;stroke-width:9.65549088;stroke-miterlimit:4;stroke-dasharray:none;stroke-opacity:1" fill="none"/><path d="M-22.394 163.498V-3.864h333.92V330.86h-333.92Zm300.54-120.256c8.438-4.945 10.476-16.564 4.233-24.137-6.486-7.87-19.427-8.069-25.882-.398-2.998 3.564-3.823 5.948-3.824 11.055 0 7.113 4.67 13.15 11.994 15.504 3.493 1.123 9.699.191 13.479-2.024z" style="fill:#000;fill-opacity:0;stroke:none;stroke-width:9.65549088;stroke-miterlimit:4;stroke-dasharray:none;stroke-opacity:1" fill="none"/><path d="M-17.181 193.466V26.104h333.92v334.724h-333.92ZM283.359 73.21c8.438-4.945 10.476-16.564 4.233-24.137-6.486-7.87-19.428-8.068-25.882-.398-2.999 3.564-3.824 5.948-3.824 11.055 0 7.113 4.669 13.15 11.994 15.505 3.493 1.123 9.699.19 13.479-2.025z" style="fill:#000;fill-opacity:0;stroke:none;stroke-width:9.65549088;stroke-miterlimit:4;stroke-dasharray:none;stroke-opacity:1" fill="none"/><path d="M-7.383 206.341V38.979h333.919v334.724H-7.384Zm300.54-120.256c8.437-4.945 10.475-16.564 4.233-24.137-6.487-7.87-19.428-8.069-25.882-.398-2.999 3.564-3.824 5.948-3.824 11.055-.001 7.113 4.669 13.15 11.994 15.505 3.492 1.122 9.698.19 13.478-2.025z" style="fill:#000;fill-opacity:0;stroke:none;stroke-width:9.65549088;stroke-miterlimit:4;stroke-dasharray:none;stroke-opacity:1" fill="none"/><path d="M-36.69 214.427V47.065h333.919V381.79h-333.92ZM263.848 94.171c8.438-4.945 10.476-16.564 4.234-24.137-6.487-7.87-19.428-8.068-25.883-.398-2.998 3.564-3.823 5.948-3.824 11.055 0 7.113 4.67 13.15 11.994 15.505 3.493 1.123 9.699.19 13.479-2.025z" style="fill:#000;fill-opacity:0;stroke:none;stroke-width:9.65549088;stroke-miterlimit:4;stroke-dasharray:none;stroke-opacity:1" fill="none"/><path d="M-19.858 186.034V18.672h333.92v334.724h-333.92Zm300.54-120.256c8.438-4.945 10.476-16.564 4.233-24.137-6.486-7.87-19.427-8.068-25.882-.398-2.998 3.564-3.823 5.948-3.824 11.055 0 7.113 4.67 13.15 11.994 15.505 3.493 1.123 9.699.19 13.479-2.025z" style="fill:#000;fill-opacity:0;stroke:none;stroke-width:9.65549088;stroke-miterlimit:4;stroke-dasharray:none;stroke-opacity:1" fill="none"/><path d="M-22.562 206.269V38.907h333.919V373.63h-333.92Zm300.54-120.257c8.437-4.945 10.475-16.564 4.233-24.137-6.487-7.87-19.428-8.068-25.882-.398-2.999 3.564-3.824 5.949-3.824 11.055-.001 7.114 4.669 13.15 11.994 15.505 3.492 1.123 9.698.19 13.478-2.025z" style="fill:#000;fill-opacity:0;stroke:none;stroke-width:9.65549088;stroke-miterlimit:4;stroke-dasharray:none;stroke-opacity:1" fill="none"/><path d="M-7.481 218.503V51.142h333.919V385.865H-7.482Zm300.54-120.256c8.437-4.945 10.475-16.564 4.233-24.137-6.487-7.87-19.428-8.068-25.882-.398-2.999 3.564-3.824 5.949-3.824 11.055 0 7.114 4.669 13.15 11.994 15.505 3.493 1.123 9.698.19 13.478-2.025z" style="fill:#000;fill-opacity:0;stroke:none;stroke-width:9.65549088;stroke-miterlimit:4;stroke-dasharray:none;stroke-opacity:1" fill="none"/><path d="M9.144 184.582V17.22h333.919v334.724H9.143Zm300.54-120.256c8.437-4.945 10.475-16.564 4.233-24.137-6.487-7.87-19.428-8.069-25.882-.398-3 3.564-3.824 5.948-3.825 11.055 0 7.113 4.67 13.15 11.995 15.505 3.492 1.122 9.698.19 13.478-2.025z" style="fill:#000;fill-opacity:0;stroke:none;stroke-width:9.65549088;stroke-miterlimit:4;stroke-dasharray:none;stroke-opacity:1" fill="none"/><path d="M-37.999 190.61V23.25h333.92V357.972H-38Zm300.54-120.256c8.438-4.945 10.476-16.564 4.233-24.137-6.486-7.87-19.428-8.068-25.882-.398-2.999 3.564-3.823 5.949-3.824 11.055 0 7.114 4.669 13.15 11.994 15.505 3.493 1.123 9.699.19 13.479-2.025z" style="fill:#000;fill-opacity:0;stroke:none;stroke-width:9.65549088;stroke-miterlimit:4;stroke-dasharray:none;stroke-opacity:1" fill="none"/><path d="M-31.668 195.474V28.112H302.25V362.835H-31.67Zm300.54-120.256c8.437-4.945 10.475-16.565 4.233-24.138-6.487-7.87-19.428-8.068-25.882-.397-2.999 3.563-3.824 5.948-3.824 11.054 0 7.114 4.669 13.15 11.994 15.505 3.493 1.123 9.698.19 13.478-2.024z" style="fill:#000;fill-opacity:0;stroke:none;stroke-width:9.65549088;stroke-miterlimit:4;stroke-dasharray:none;stroke-opacity:1" fill="none"/><path d="M6.062 205.864V38.502H339.98v334.724H6.06Zm300.54-120.256c8.437-4.945 10.475-16.564 4.233-24.137-6.487-7.87-19.428-8.069-25.882-.398-2.999 3.564-3.824 5.948-3.824 11.055 0 7.113 4.669 13.15 11.994 15.504 3.493 1.123 9.698.191 13.478-2.024z" style="fill:#000;fill-opacity:0;stroke:none;stroke-width:9.65549088;stroke-miterlimit:4;stroke-dasharray:none;stroke-opacity:1" fill="none"/><path d="M-18.005 225.701V58.34h333.92v334.724h-333.92Zm300.54-120.256c8.438-4.945 10.476-16.564 4.233-24.137-6.486-7.87-19.428-8.068-25.882-.398-2.999 3.564-3.823 5.948-3.824 11.055 0 7.113 4.669 13.15 11.994 15.505 3.493 1.123 9.699.19 13.479-2.025z" style="fill:#000;fill-opacity:0;stroke:none;stroke-width:9.65549088;stroke-miterlimit:4;stroke-dasharray:none;stroke-opacity:1" fill="none"/><path d="M-27.516 201.91V34.55h333.92v334.724h-333.92Zm300.54-120.255c8.438-4.945 10.476-16.565 4.233-24.138-6.486-7.869-19.427-8.068-25.882-.397-2.998 3.563-3.823 5.948-3.824 11.054 0 7.114 4.67 13.15 11.994 15.505 3.493 1.123 9.699.191 13.479-2.024z" style="fill:#000;fill-opacity:0;stroke:none;stroke-width:9.65549088;stroke-miterlimit:4;stroke-dasharray:none;stroke-opacity:1" fill="none"/><path d="M-3.148 186.95V19.59H330.77V354.312H-3.15Zm300.54-120.256c8.437-4.944 10.475-16.564 4.233-24.137-6.487-7.87-19.428-8.068-25.882-.398-2.999 3.564-3.824 5.949-3.824 11.055 0 7.114 4.669 13.15 11.994 15.505 3.493 1.123 9.698.19 13.478-2.025z" style="fill:#000;fill-opacity:0;stroke:none;stroke-width:9.65549088;stroke-miterlimit:4;stroke-dasharray:none;stroke-opacity:1" fill="none"/><path d="M-3.404 210.039V42.677h333.92V377.4H-3.405Zm300.54-120.256c8.438-4.945 10.476-16.565 4.233-24.138-6.486-7.869-19.427-8.068-25.882-.397-2.998 3.563-3.823 5.948-3.824 11.054 0 7.114 4.67 13.15 11.994 15.505 3.493 1.123 9.699.191 13.479-2.024z" style="fill:#000;fill-opacity:0;stroke:none;stroke-width:9.65549088;stroke-miterlimit:4;stroke-dasharray:none;stroke-opacity:1" fill="none"/><path d="M-4.484 221.72V54.358h333.92v334.724H-4.485Zm300.54-120.256c8.438-4.945 10.476-16.564 4.234-24.137-6.487-7.87-19.428-8.069-25.883-.398-2.998 3.564-3.823 5.948-3.824 11.054 0 7.114 4.67 13.15 11.994 15.505 3.493 1.123 9.699.191 13.479-2.024z" style="fill:#000;fill-opacity:0;stroke:none;stroke-width:9.65549088;stroke-miterlimit:4;stroke-dasharray:none;stroke-opacity:1" fill="none"/><path d="M-4.431 221.382V54.02h333.919v334.724H-4.432Zm300.54-120.256c8.437-4.945 10.475-16.564 4.233-24.137-6.487-7.87-19.428-8.069-25.882-.398-2.999 3.564-3.824 5.948-3.824 11.054 0 7.114 4.669 13.15 11.994 15.505 3.493 1.123 9.698.191 13.478-2.024z" style="fill:#000;fill-opacity:0;stroke:none;stroke-width:9.65549088;stroke-miterlimit:4;stroke-dasharray:none;stroke-opacity:1" fill="none"/><path d="M5.16 228.767V61.405h333.919V396.13H5.158Zm300.539-120.256c8.438-4.945 10.476-16.564 4.233-24.137-6.486-7.87-19.427-8.068-25.882-.398-2.998 3.564-3.823 5.948-3.824 11.055 0 7.113 4.67 13.15 11.994 15.505 3.493 1.123 9.699.19 13.479-2.025z" style="fill:#000;fill-opacity:0;stroke:none;stroke-width:9.65549088;stroke-miterlimit:4;stroke-dasharray:none;stroke-opacity:1" fill="none"/><path d="M22.381 233.079V65.717h333.92v334.724H22.38Zm300.54-120.256c8.438-4.945 10.476-16.565 4.233-24.137-6.486-7.87-19.428-8.069-25.882-.398-2.999 3.563-3.823 5.948-3.824 11.054 0 7.114 4.669 13.15 11.994 15.505 3.493 1.123 9.699.191 13.479-2.024z" style="fill:#000;fill-opacity:0;stroke:none;stroke-width:9.65549088;stroke-miterlimit:4;stroke-dasharray:none;stroke-opacity:1" fill="none"/><path d="M1.542 209.71V42.35h333.92V377.072H1.541Zm300.54-120.255c8.438-4.945 10.476-16.565 4.233-24.138-6.486-7.87-19.428-8.068-25.882-.397-2.999 3.563-3.823 5.948-3.824 11.054 0 7.114 4.669 13.15 11.994 15.505 3.493 1.123 9.699.19 13.479-2.024z" style="fill:#000;fill-opacity:0;stroke:none;stroke-width:9.65549088;stroke-miterlimit:4;stroke-dasharray:none;stroke-opacity:1" fill="none"/><path d="M-9.152 228.705V61.343h333.92V396.066H-9.153Zm300.54-120.256c8.438-4.945 10.476-16.565 4.234-24.138-6.487-7.87-19.428-8.068-25.883-.397-2.998 3.563-3.823 5.948-3.824 11.054 0 7.114 4.67 13.15 11.994 15.505 3.493 1.123 9.699.19 13.479-2.024z" style="fill:#000;fill-opacity:0;stroke:none;stroke-width:9.65549088;stroke-miterlimit:4;stroke-dasharray:none;stroke-opacity:1" fill="none"/><path d="M-5.265 231.154V63.792h333.919V398.515H-5.266Zm300.54-120.256c8.437-4.945 10.475-16.565 4.233-24.138-6.487-7.869-19.428-8.068-25.882-.397-3 3.563-3.824 5.948-3.824 11.054-.001 7.114 4.668 13.15 11.994 15.505 3.492 1.123 9.698.19 13.478-2.024z" style="fill:#000;fill-opacity:0;stroke:none;stroke-width:9.65549088;stroke-miterlimit:4;stroke-dasharray:none;stroke-opacity:1" fill="none"/><path d="M11.795 232.714V65.352h333.92V400.075H11.794Zm300.54-120.256c8.438-4.945 10.476-16.565 4.233-24.138-6.486-7.87-19.428-8.068-25.882-.397-2.999 3.563-3.824 5.948-3.824 11.054 0 7.114 4.669 13.15 11.994 15.505 3.493 1.123 9.699.19 13.479-2.024z" style="fill:#000;fill-opacity:0;stroke:none;stroke-width:9.65549088;stroke-miterlimit:4;stroke-dasharray:none;stroke-opacity:1" fill="none"/><path d="M39.978 241.05V73.69h333.92v334.724H39.978Zm300.54-120.255c8.438-4.945 10.476-16.565 4.234-24.137-6.487-7.87-19.428-8.069-25.883-.398-2.998 3.564-3.823 5.948-3.824 11.054 0 7.114 4.67 13.15 11.994 15.505 3.493 1.123 9.699.191 13.479-2.024z" style="fill:#000;fill-opacity:0;stroke:none;stroke-width:9.65549088;stroke-miterlimit:4;stroke-dasharray:none;stroke-opacity:1" fill="none"/><path d="M9.854 250.766V83.404h333.919v334.724H9.853Zm300.54-120.256c8.437-4.945 10.475-16.564 4.233-24.137-6.487-7.87-19.428-8.068-25.882-.398-2.999 3.564-3.824 5.948-3.824 11.055-.001 7.113 4.669 13.15 11.994 15.505 3.493 1.123 9.698.19 13.478-2.025z" style="fill:#000;fill-opacity:0;stroke:none;stroke-width:9.65549088;stroke-miterlimit:4;stroke-dasharray:none;stroke-opacity:1" fill="none"/><path d="M6.438 258.655V91.293h333.919v334.724H6.437ZM306.978 138.4c8.437-4.945 10.475-16.564 4.233-24.137-6.487-7.87-19.428-8.068-25.882-.398-2.999 3.564-3.824 5.948-3.824 11.055-.001 7.114 4.669 13.15 11.994 15.505 3.492 1.123 9.698.19 13.478-2.025z" style="fill:#000;fill-opacity:0;stroke:none;stroke-width:9.65549088;stroke-miterlimit:4;stroke-dasharray:none;stroke-opacity:1" fill="none"/><path d="M24.465 257.788V90.426h333.919V425.15H24.464Zm300.54-120.256c8.437-4.945 10.475-16.564 4.233-24.137-6.487-7.87-19.428-8.068-25.882-.398-3 3.564-3.824 5.948-3.824 11.055-.001 7.113 4.668 13.15 11.994 15.505 3.492 1.123 9.698.19 13.478-2.025z" style="fill:#000;fill-opacity:0;stroke:none;stroke-width:9.65549088;stroke-miterlimit:4;stroke-dasharray:none;stroke-opacity:1" fill="none"/><path d="M32.43 267.401V100.04h333.919v334.724H32.429Zm300.54-120.256c8.437-4.945 10.475-16.564 4.233-24.137-6.486-7.87-19.428-8.068-25.882-.398-2.999 3.564-3.824 5.948-3.824 11.055 0 7.113 4.669 13.15 11.994 15.505 3.493 1.123 9.698.19 13.479-2.025z" style="fill:#000;fill-opacity:0;stroke:none;stroke-width:9.65549088;stroke-miterlimit:4;stroke-dasharray:none;stroke-opacity:1" fill="none"/><path d="M45.6 240.192V72.83h333.92V407.553H45.6Zm300.54-120.256c8.438-4.945 10.476-16.565 4.234-24.138-6.487-7.869-19.428-8.068-25.882-.397-2.999 3.563-3.824 5.948-3.824 11.054 0 7.114 4.669 13.15 11.994 15.505 3.493 1.123 9.698.19 13.478-2.024z" style="fill:#000;fill-opacity:0;stroke:none;stroke-width:9.65549088;stroke-miterlimit:4;stroke-dasharray:none;stroke-opacity:1" fill="none"/><path d="M49.056 254.987V87.626h333.92V422.349H49.055Zm300.54-120.256c8.437-4.945 10.475-16.564 4.233-24.137-6.486-7.87-19.428-8.068-25.882-.398-2.999 3.564-3.824 5.949-3.824 11.055 0 7.114 4.669 13.15 11.994 15.505 3.493 1.123 9.698.19 13.479-2.025z" style="fill:#000;fill-opacity:0;stroke:none;stroke-width:9.65549088;stroke-miterlimit:4;stroke-dasharray:none;stroke-opacity:1" fill="none"/><path d="M21.97 252.231V84.87h333.919v334.724H21.969Zm300.54-120.256c8.437-4.945 10.475-16.564 4.233-24.137-6.487-7.87-19.428-8.068-25.882-.398-3 3.564-3.824 5.948-3.824 11.055-.001 7.113 4.668 13.15 11.994 15.505 3.492 1.123 9.698.19 13.478-2.025z" style="fill:#000;fill-opacity:0;stroke:none;stroke-width:9.65549088;stroke-miterlimit:4;stroke-dasharray:none;stroke-opacity:1" fill="none"/><path d="M17.086 257.186V89.825h333.919V424.548H17.085Zm300.54-120.256c8.437-4.945 10.475-16.564 4.233-24.137-6.486-7.87-19.428-8.068-25.882-.398-2.999 3.564-3.824 5.949-3.824 11.055 0 7.114 4.669 13.15 11.994 15.505 3.493 1.123 9.698.19 13.479-2.025z" style="fill:#000;fill-opacity:0;stroke:none;stroke-width:9.65549088;stroke-miterlimit:4;stroke-dasharray:none;stroke-opacity:1" fill="none"/><path d="M15.107 235.239V67.877h333.92V402.6H15.106Zm300.54-120.256c8.438-4.945 10.476-16.565 4.233-24.138-6.486-7.869-19.428-8.068-25.882-.397-2.999 3.563-3.823 5.948-3.824 11.054 0 7.114 4.669 13.15 11.994 15.505 3.493 1.123 9.699.19 13.479-2.024z" style="fill:#000;fill-opacity:0;stroke:none;stroke-width:9.65549088;stroke-miterlimit:4;stroke-dasharray:none;stroke-opacity:1" fill="none"/><path d="M32.25 245.694V78.332h333.92v334.724H32.25Zm300.54-120.256c8.438-4.945 10.476-16.565 4.233-24.138-6.486-7.869-19.427-8.068-25.882-.397-2.998 3.563-3.823 5.948-3.824 11.054 0 7.114 4.67 13.15 11.994 15.505 3.493 1.123 9.699.19 13.479-2.024z" style="fill:#000;fill-opacity:0;stroke:none;stroke-width:9.65549088;stroke-miterlimit:4;stroke-dasharray:none;stroke-opacity:1" fill="none"/><path d="M44.881 231.345V63.983h333.92v334.724H44.88Zm300.54-120.256c8.438-4.945 10.476-16.564 4.233-24.137-6.486-7.87-19.428-8.069-25.882-.398-2.999 3.564-3.823 5.948-3.824 11.054 0 7.114 4.669 13.15 11.994 15.505 3.493 1.123 9.699.191 13.479-2.024z" style="fill:#000;fill-opacity:0;stroke:none;stroke-width:9.65549088;stroke-miterlimit:4;stroke-dasharray:none;stroke-opacity:1" fill="none"/><path d="M28.973 247.702V80.34h333.919v334.724H28.972Zm300.54-120.256c8.437-4.945 10.475-16.564 4.233-24.137-6.487-7.87-19.428-8.069-25.882-.398-3 3.564-3.824 5.948-3.824 11.055-.001 7.113 4.668 13.15 11.994 15.505 3.492 1.122 9.698.19 13.478-2.025z" style="fill:#000;fill-opacity:0;stroke:none;stroke-width:9.65549088;stroke-miterlimit:4;stroke-dasharray:none;stroke-opacity:1" fill="none"/><path d="M52.24 256.065V88.703h333.92v334.724H52.24ZM352.78 135.81c8.438-4.945 10.476-16.564 4.234-24.137-6.487-7.87-19.428-8.068-25.882-.398-2.999 3.564-3.824 5.948-3.824 11.055-.001 7.113 4.669 13.15 11.994 15.505 3.492 1.123 9.698.19 13.478-2.025z" style="fill:#000;fill-opacity:0;stroke:none;stroke-width:9.65549088;stroke-miterlimit:4;stroke-dasharray:none;stroke-opacity:1" fill="none"/><path d="M26.59 234.227V66.865h333.92V401.588H26.59ZM327.13 113.97c8.438-4.945 10.476-16.565 4.234-24.138-6.487-7.87-19.428-8.068-25.883-.397-2.998 3.563-3.823 5.948-3.824 11.054 0 7.114 4.67 13.15 11.994 15.505 3.493 1.123 9.699.19 13.479-2.024z" style="fill:#000;fill-opacity:0;stroke:none;stroke-width:9.65549088;stroke-miterlimit:4;stroke-dasharray:none;stroke-opacity:1" fill="none"/><path d="M25.317 248.868V81.506h333.92V416.23H25.316Zm300.54-120.256c8.438-4.945 10.476-16.564 4.233-24.137-6.486-7.87-19.428-8.069-25.882-.398-2.999 3.564-3.823 5.948-3.824 11.054 0 7.114 4.669 13.15 11.994 15.505 3.493 1.123 9.699.191 13.479-2.024z" style="fill:#000;fill-opacity:0;stroke:none;stroke-width:9.65549088;stroke-miterlimit:4;stroke-dasharray:none;stroke-opacity:1" fill="none"/><path d="M28.176 255.677V88.315h333.919V423.04H28.175Zm300.54-120.256c8.437-4.945 10.475-16.564 4.233-24.137-6.487-7.87-19.428-8.069-25.882-.398-2.999 3.564-3.824 5.948-3.824 11.055 0 7.113 4.669 13.15 11.994 15.505 3.493 1.122 9.698.19 13.478-2.025z" style="fill:#000;fill-opacity:0;stroke:none;stroke-width:9.65549088;stroke-miterlimit:4;stroke-dasharray:none;stroke-opacity:1" fill="none"/><path d="M44.126 235.559V68.197h333.92v334.724H44.125Zm300.54-120.256c8.438-4.945 10.476-16.564 4.234-24.137-6.487-7.87-19.428-8.069-25.883-.398-2.998 3.564-3.823 5.948-3.824 11.055 0 7.113 4.67 13.15 11.994 15.505 3.493 1.122 9.699.19 13.479-2.025z" style="fill:#000;fill-opacity:0;stroke:none;stroke-width:9.65549088;stroke-miterlimit:4;stroke-dasharray:none;stroke-opacity:1" fill="none"/><path d="M9.045 197.912V30.55h333.92v334.724H9.044Zm300.54-120.256c8.438-4.945 10.476-16.564 4.233-24.137-6.486-7.87-19.427-8.069-25.882-.398-2.998 3.564-3.823 5.948-3.824 11.055 0 7.113 4.67 13.15 11.994 15.504 3.493 1.123 9.699.191 13.479-2.024z" style="fill:#000;fill-opacity:0;stroke:none;stroke-width:9.65549088;stroke-miterlimit:4;stroke-dasharray:none;stroke-opacity:1" fill="none"/><path d="M3.567 210.526V43.164h333.92v334.724H3.566ZM304.107 90.27c8.438-4.945 10.476-16.564 4.233-24.137-6.486-7.87-19.427-8.069-25.882-.398-2.998 3.564-3.823 5.948-3.824 11.055 0 7.113 4.67 13.15 11.994 15.504 3.493 1.123 9.699.191 13.479-2.024z" style="fill:#000;fill-opacity:0;stroke:none;stroke-width:9.65549088;stroke-miterlimit:4;stroke-dasharray:none;stroke-opacity:1" fill="none"/><path d="M24.453 222.87V55.508h333.92V390.23H24.453Zm300.54-120.256c8.438-4.945 10.476-16.565 4.234-24.138-6.487-7.869-19.428-8.068-25.882-.397-3 3.563-3.824 5.948-3.825 11.054 0 7.114 4.67 13.15 11.994 15.505 3.493 1.123 9.699.19 13.479-2.024z" style="fill:#000;fill-opacity:0;stroke:none;stroke-width:9.65549088;stroke-miterlimit:4;stroke-dasharray:none;stroke-opacity:1" fill="none"/><path d="M20.018 224.844V57.483h333.92V392.206H20.017Zm300.54-120.256c8.438-4.945 10.476-16.564 4.234-24.137-6.487-7.87-19.428-8.068-25.883-.398-2.998 3.564-3.823 5.949-3.824 11.055 0 7.114 4.67 13.15 11.994 15.505 3.493 1.123 9.699.19 13.479-2.025z" style="fill:#000;fill-opacity:0;stroke:none;stroke-width:9.65549088;stroke-miterlimit:4;stroke-dasharray:none;stroke-opacity:1" fill="none"/><path d="M41.104 191.4V24.038h333.92v334.724H41.103Zm300.54-120.256c8.438-4.945 10.476-16.564 4.233-24.137-6.486-7.87-19.428-8.068-25.882-.398-2.999 3.564-3.823 5.948-3.824 11.055 0 7.113 4.669 13.15 11.994 15.505 3.493 1.123 9.699.19 13.479-2.025z" style="fill:#000;fill-opacity:0;stroke:none;stroke-width:9.65549088;stroke-miterlimit:4;stroke-dasharray:none;stroke-opacity:1" fill="none"/><path d="M34.694 191.81V24.45h333.919V359.172H34.693Zm300.54-120.256c8.437-4.945 10.475-16.564 4.233-24.137-6.487-7.87-19.428-8.068-25.882-.398-2.999 3.564-3.824 5.949-3.824 11.055-.001 7.114 4.669 13.15 11.994 15.505 3.492 1.123 9.698.19 13.478-2.025z" style="fill:#000;fill-opacity:0;stroke:none;stroke-width:9.65549088;stroke-miterlimit:4;stroke-dasharray:none;stroke-opacity:1" fill="none"/><path d="M19 212.923V45.561h333.919v334.724H18.998ZM319.538 92.667c8.438-4.945 10.476-16.564 4.233-24.137-6.486-7.87-19.427-8.069-25.882-.398-2.998 3.564-3.823 5.948-3.824 11.055 0 7.113 4.67 13.15 11.994 15.505 3.493 1.122 9.699.19 13.479-2.025z" style="fill:#000;fill-opacity:0;stroke:none;stroke-width:9.65549088;stroke-miterlimit:4;stroke-dasharray:none;stroke-opacity:1" fill="none"/><path d="M-7.898 186.043V18.681h333.92v334.724H-7.899Zm300.54-120.256c8.438-4.945 10.476-16.564 4.234-24.137-6.487-7.87-19.428-8.068-25.883-.398-2.998 3.564-3.823 5.948-3.824 11.055 0 7.114 4.67 13.15 11.994 15.505 3.493 1.123 9.699.19 13.479-2.025z" style="fill:#000;fill-opacity:0;stroke:none;stroke-width:9.65549088;stroke-miterlimit:4;stroke-dasharray:none;stroke-opacity:1" fill="none"/><path d="M-22.284 206.613V39.251h333.92v334.724h-333.92Zm300.54-120.256c8.438-4.945 10.476-16.564 4.233-24.137-6.486-7.87-19.428-8.068-25.882-.398-2.999 3.564-3.823 5.948-3.824 11.055 0 7.113 4.669 13.15 11.994 15.505 3.493 1.122 9.699.19 13.479-2.025z" style="fill:#000;fill-opacity:0;stroke:none;stroke-width:9.65549088;stroke-miterlimit:4;stroke-dasharray:none;stroke-opacity:1" fill="none"/><path d="M-16.41 184.86V17.497h333.92V352.22H-16.41ZM284.13 64.602c8.438-4.945 10.476-16.564 4.234-24.137-6.487-7.87-19.428-8.068-25.882-.398-3 3.564-3.824 5.949-3.824 11.055-.001 7.114 4.668 13.15 11.994 15.505 3.492 1.123 9.698.19 13.478-2.025z" style="fill:#000;fill-opacity:0;stroke:none;stroke-width:9.65549088;stroke-miterlimit:4;stroke-dasharray:none;stroke-opacity:1" fill="none"/><path d="M-27.853 190.488V23.126h333.92V357.85h-333.92Zm300.54-120.256c8.438-4.945 10.476-16.564 4.234-24.137-6.487-7.87-19.428-8.069-25.883-.398-2.998 3.564-3.823 5.948-3.824 11.055 0 7.113 4.67 13.15 11.994 15.505 3.493 1.122 9.699.19 13.479-2.025z" style="fill:#000;fill-opacity:0;stroke:none;stroke-width:9.65549088;stroke-miterlimit:4;stroke-dasharray:none;stroke-opacity:1" fill="none"/><path d="M-15.66 175.235V7.873h333.919v334.724h-333.92ZM284.878 54.979c8.438-4.945 10.476-16.565 4.233-24.138-6.486-7.869-19.427-8.068-25.882-.397-2.998 3.563-3.823 5.948-3.824 11.054 0 7.114 4.67 13.15 11.994 15.505 3.493 1.123 9.699.19 13.479-2.024z" style="fill:#000;fill-opacity:0;stroke:none;stroke-width:9.65549088;stroke-miterlimit:4;stroke-dasharray:none;stroke-opacity:1" fill="none"/><path d="M-47.111 190.085V22.723h333.919v334.724h-333.92Zm300.54-120.256c8.437-4.945 10.475-16.564 4.233-24.137-6.486-7.87-19.428-8.069-25.882-.398-2.999 3.564-3.824 5.948-3.824 11.055 0 7.113 4.669 13.15 11.994 15.505 3.493 1.122 9.698.19 13.479-2.025z" style="fill:#000;fill-opacity:0;stroke:none;stroke-width:9.65549088;stroke-miterlimit:4;stroke-dasharray:none;stroke-opacity:1" fill="none"/><path d="M-45.591 201.658V34.296h333.919V369.02h-333.92Zm300.54-120.256c8.437-4.945 10.475-16.564 4.233-24.137-6.487-7.87-19.428-8.068-25.882-.398-3 3.564-3.824 5.948-3.824 11.055-.001 7.113 4.668 13.15 11.994 15.505 3.492 1.123 9.698.19 13.478-2.025z" style="fill:#000;fill-opacity:0;stroke:none;stroke-width:9.65549088;stroke-miterlimit:4;stroke-dasharray:none;stroke-opacity:1" fill="none"/><path d="M-12.374 185.517V18.155h333.92V352.878h-333.92ZM288.166 65.26c8.438-4.945 10.476-16.564 4.233-24.137-6.486-7.87-19.428-8.068-25.882-.398-2.999 3.564-3.823 5.949-3.824 11.055 0 7.114 4.669 13.15 11.994 15.505 3.493 1.123 9.699.19 13.479-2.025z" style="fill:#000;fill-opacity:0;stroke:none;stroke-width:9.65549088;stroke-miterlimit:4;stroke-dasharray:none;stroke-opacity:1" fill="none"/><path d="M-37.084 201.446V34.084h333.919v334.724h-333.92ZM263.456 81.19c8.437-4.945 10.475-16.564 4.233-24.137-6.487-7.87-19.428-8.068-25.882-.398-2.999 3.564-3.824 5.948-3.824 11.055-.001 7.113 4.669 13.15 11.994 15.505 3.493 1.122 9.698.19 13.478-2.025z" style="fill:#000;fill-opacity:0;stroke:none;stroke-width:9.65549088;stroke-miterlimit:4;stroke-dasharray:none;stroke-opacity:1" fill="none"/><path d="M-37.202 187.465V20.103h333.92v334.724h-333.92Zm300.54-120.256c8.438-4.945 10.476-16.565 4.233-24.138-6.486-7.869-19.427-8.068-25.882-.397-2.998 3.563-3.823 5.948-3.824 11.054 0 7.114 4.67 13.15 11.994 15.505 3.493 1.123 9.699.19 13.479-2.024z" style="fill:#000;fill-opacity:0;stroke:none;stroke-width:9.65549088;stroke-miterlimit:4;stroke-dasharray:none;stroke-opacity:1" fill="none"/><path d="M-49.84 183.17V15.81h333.92V350.532H-49.84ZM250.7 62.915c8.438-4.944 10.476-16.564 4.233-24.137-6.486-7.87-19.428-8.068-25.882-.398-2.999 3.564-3.823 5.949-3.824 11.055 0 7.114 4.669 13.15 11.994 15.505 3.493 1.123 9.699.19 13.479-2.025z" style="fill:#000;fill-opacity:0;stroke:none;stroke-width:9.65549088;stroke-miterlimit:4;stroke-dasharray:none;stroke-opacity:1" fill="none"/><path d="M-43.506 210.204V42.842h333.92v334.724h-333.92Zm300.54-120.256c8.438-4.945 10.476-16.565 4.233-24.138-6.486-7.869-19.427-8.068-25.882-.397-2.998 3.563-3.823 5.948-3.824 11.054 0 7.114 4.67 13.15 11.994 15.505 3.493 1.123 9.699.191 13.479-2.024z" style="fill:#000;fill-opacity:0;stroke:none;stroke-width:9.65549088;stroke-miterlimit:4;stroke-dasharray:none;stroke-opacity:1" fill="none"/><path d="M-37.38 212.078V44.716h333.919V379.44h-333.92ZM263.158 91.822c8.438-4.945 10.476-16.564 4.234-24.137-6.487-7.87-19.428-8.069-25.883-.398-2.998 3.564-3.823 5.948-3.824 11.055 0 7.113 4.67 13.15 11.994 15.504 3.493 1.123 9.699.191 13.479-2.024z" style="fill:#000;fill-opacity:0;stroke:none;stroke-width:9.65549088;stroke-miterlimit:4;stroke-dasharray:none;stroke-opacity:1" fill="none"/><g aria-label="S EA N" style="font-style:normal;font-weight:400;font-size:48px;line-height:1.25;font-family:sans-serif;text-align:center;letter-spacing:0;word-spacing:0;text-anchor:middle;fill:#fff;fill-opacity:1;stroke:none"><path d="M77.813 98.467q0 2.04-.96 4.032-.938 1.992-2.65 3.375-1.874 1.5-4.382 2.343-2.484.844-6 .844-3.773 0-6.797-.703-3-.703-6.117-2.086v-5.812h.328q2.649 2.203 6.117 3.398 3.47 1.195 6.516 1.195 4.312 0 6.703-1.617 2.414-1.617 2.414-4.312 0-2.32-1.148-3.422-1.125-1.102-3.446-1.711-1.757-.469-3.82-.774-2.039-.304-4.336-.773-4.64-.984-6.89-3.352-2.227-2.39-2.227-6.21 0-4.383 3.703-7.172 3.703-2.813 9.398-2.813 3.68 0 6.75.703t5.438 1.735v5.484h-.328q-1.992-1.687-5.25-2.789-3.235-1.125-6.633-1.125-3.727 0-6 1.547-2.25 1.547-2.25 3.984 0 2.18 1.125 3.422t3.961 1.899q1.5.328 4.266.796 2.765.47 4.687.961 3.89 1.032 5.86 3.118 1.968 2.085 1.968 5.835zM76.665 168.428H53.673V133.53h22.992v4.125H58.313v9.562h18.352v4.125H58.313v12.961h18.352ZM79.97 228.428h-4.946l-3.422-9.726H56.51l-3.422 9.726h-4.711l12.703-34.898h6.187zm-9.797-13.71-6.118-17.133-6.14 17.132zM77.532 288.428H71.79L55.243 257.21v31.218h-4.336V253.53h7.195l15.094 28.5v-28.5h4.336z"/></g><g aria-label="1502 2005 1007 308" style="font-style:normal;font-weight:400;font-size:48px;line-height:1.25;font-family:sans-serif;text-align:center;letter-spacing:0;word-spacing:0;text-anchor:middle;fill:#fff;fill-opacity:1;stroke:none"><path d="M149.597 108.222h-18.89v-3.563h7.265V81.27h-7.266V78.08q1.477 0 3.164-.234 1.688-.258 2.555-.727 1.078-.586 1.687-1.476.633-.914.727-2.438h3.633v31.453h7.125zM181.87 97.136q0 2.438-.89 4.664-.891 2.227-2.438 3.75-1.687 1.64-4.031 2.531-2.32.868-5.39.868-2.86 0-5.509-.61-2.648-.586-4.476-1.43v-4.945h.328q1.922 1.219 4.5 2.086 2.578.844 5.063.844 1.664 0 3.21-.469 1.57-.469 2.79-1.64 1.03-1.008 1.546-2.415.54-1.406.54-3.257 0-1.805-.633-3.047-.61-1.242-1.711-1.992-1.219-.891-2.977-1.243-1.734-.375-3.89-.375-2.063 0-3.985.282-1.898.28-3.281.562V73.324h21v4.101h-16.477v9.281q1.008-.093 2.063-.14 1.055-.047 1.828-.047 2.836 0 4.969.492 2.133.469 3.914 1.688 1.875 1.289 2.906 3.328 1.031 2.039 1.031 5.109zM212.667 90.761q0 9.398-2.953 13.805-2.93 4.383-9.117 4.383-6.281 0-9.188-4.454-2.882-4.453-2.882-13.687 0-9.305 2.93-13.734 2.929-4.454 9.14-4.454 6.281 0 9.164 4.524 2.906 4.5 2.906 13.617zm-6.164 10.64q.82-1.898 1.102-4.452.304-2.579.304-6.188 0-3.562-.304-6.187-.282-2.625-1.125-4.454-.82-1.804-2.25-2.718-1.407-.914-3.633-.914-2.203 0-3.656.914-1.43.914-2.274 2.765-.797 1.735-1.101 4.524-.282 2.789-.282 6.117 0 3.656.258 6.117t1.102 4.406q.773 1.828 2.18 2.79 1.43.96 3.773.96 2.203 0 3.656-.914 1.453-.914 2.25-2.765zM243.277 108.222h-23.625v-4.898l4.921-4.22q2.485-2.109 4.618-4.195 4.5-4.359 6.164-6.914 1.664-2.578 1.664-5.554 0-2.719-1.805-4.242-1.781-1.547-4.992-1.547-2.133 0-4.617.75-2.485.75-4.852 2.297h-.234v-4.922q1.664-.82 4.43-1.5 2.788-.68 5.39-.68 5.367 0 8.414 2.602 3.047 2.578 3.047 7.007 0 1.993-.516 3.727-.492 1.71-1.476 3.258-.914 1.453-2.156 2.86-1.22 1.405-2.977 3.116-2.508 2.461-5.18 4.782-2.672 2.296-4.992 4.265h18.774zM151.589 168.222h-23.625v-4.898l4.922-4.22q2.484-2.109 4.617-4.195 4.5-4.359 6.164-6.914 1.664-2.578 1.664-5.554 0-2.719-1.804-4.242-1.782-1.547-4.993-1.547-2.132 0-4.617.75-2.484.75-4.851 2.297h-.235v-4.922q1.664-.82 4.43-1.5 2.789-.68 5.39-.68 5.368 0 8.415 2.602 3.046 2.578 3.046 7.007 0 1.993-.515 3.727-.492 1.71-1.477 3.258-.914 1.453-2.156 2.86-1.219 1.405-2.977 3.116-2.507 2.461-5.18 4.782-2.671 2.296-4.991 4.265h18.773zM182.105 150.761q0 9.398-2.953 13.805-2.93 4.383-9.118 4.383-6.28 0-9.187-4.454-2.883-4.453-2.883-13.687 0-9.305 2.93-13.734 2.93-4.454 9.14-4.454 6.282 0 9.164 4.524 2.907 4.5 2.907 13.617zm-6.164 10.64q.82-1.898 1.101-4.452.305-2.579.305-6.188 0-3.562-.305-6.187-.281-2.625-1.125-4.454-.82-1.804-2.25-2.718-1.406-.914-3.633-.914-2.203 0-3.656.914-1.43.914-2.273 2.765-.797 1.735-1.102 4.524-.281 2.789-.281 6.117 0 3.656.258 6.117.257 2.461 1.101 4.406.774 1.828 2.18 2.79 1.43.96 3.773.96 2.203 0 3.657-.914 1.453-.914 2.25-2.765zM212.667 150.761q0 9.398-2.953 13.805-2.93 4.383-9.117 4.383-6.281 0-9.188-4.454-2.882-4.453-2.882-13.687 0-9.305 2.93-13.734 2.929-4.454 9.14-4.454 6.281 0 9.164 4.524 2.906 4.5 2.906 13.617zm-6.164 10.64q.82-1.898 1.102-4.452.304-2.579.304-6.188 0-3.562-.304-6.187-.282-2.625-1.125-4.454-.82-1.804-2.25-2.718-1.407-.914-3.633-.914-2.203 0-3.656.914-1.43.914-2.274 2.765-.797 1.735-1.101 4.524-.282 2.789-.282 6.117 0 3.656.258 6.117t1.102 4.406q.773 1.828 2.18 2.79 1.43.96 3.773.96 2.203 0 3.656-.914 1.453-.914 2.25-2.765zM242.995 157.136q0 2.438-.89 4.664-.891 2.227-2.438 3.75-1.687 1.64-4.031 2.531-2.32.868-5.39.868-2.86 0-5.509-.61-2.648-.586-4.476-1.43v-4.945h.328q1.922 1.219 4.5 2.086 2.578.844 5.063.844 1.664 0 3.21-.469 1.57-.469 2.79-1.64 1.03-1.008 1.546-2.415.54-1.406.54-3.257 0-1.805-.633-3.047-.61-1.242-1.711-1.992-1.219-.891-2.977-1.243-1.734-.375-3.89-.375-2.063 0-3.985.282-1.898.28-3.281.562v-17.976h21v4.101h-16.477v9.281q1.008-.093 2.063-.14 1.055-.047 1.828-.047 2.836 0 4.969.492 2.133.469 3.914 1.688 1.875 1.289 2.906 3.328 1.031 2.039 1.031 5.109zM149.597 228.222h-18.89v-3.563h7.265v-23.39h-7.266v-3.188q1.477 0 3.164-.234 1.688-.258 2.555-.727 1.078-.586 1.687-1.476.633-.914.727-2.438h3.633v31.453h7.125zM182.105 210.761q0 9.398-2.953 13.805-2.93 4.383-9.118 4.383-6.28 0-9.187-4.454-2.883-4.453-2.883-13.687 0-9.305 2.93-13.734 2.93-4.454 9.14-4.454 6.282 0 9.164 4.524 2.907 4.5 2.907 13.617zm-6.164 10.64q.82-1.898 1.101-4.452.305-2.579.305-6.188 0-3.562-.305-6.187-.281-2.625-1.125-4.454-.82-1.804-2.25-2.718-1.406-.914-3.633-.914-2.203 0-3.656.914-1.43.914-2.273 2.765-.797 1.735-1.102 4.524-.281 2.789-.281 6.117 0 3.656.258 6.117.257 2.461 1.101 4.406.774 1.828 2.18 2.79 1.43.96 3.773.96 2.203 0 3.657-.914 1.453-.914 2.25-2.765zM212.667 210.761q0 9.398-2.953 13.805-2.93 4.383-9.117 4.383-6.281 0-9.188-4.454-2.882-4.453-2.882-13.687 0-9.305 2.93-13.734 2.929-4.454 9.14-4.454 6.281 0 9.164 4.524 2.906 4.5 2.906 13.617zm-6.164 10.64q.82-1.898 1.102-4.452.304-2.579.304-6.188 0-3.562-.304-6.187-.282-2.625-1.125-4.454-.82-1.804-2.25-2.718-1.407-.914-3.633-.914-2.203 0-3.656.914-1.43.914-2.274 2.765-.797 1.735-1.101 4.524-.282 2.789-.282 6.117 0 3.656.258 6.117t1.102 4.406q.773 1.828 2.18 2.79 1.43.96 3.773.96 2.203 0 3.656-.914 1.453-.914 2.25-2.765zM243.37 198.55l-15.797 29.672h-5.015l16.804-30.797h-19.875v-4.101h23.883zM163.8 271.417q1.125 1.008 1.852 2.532.726 1.523.726 3.937 0 2.39-.867 4.383-.867 1.992-2.438 3.469-1.757 1.64-4.148 2.437-2.367.774-5.203.774-2.906 0-5.719-.704-2.812-.68-4.617-1.5v-4.898h.351q1.993 1.312 4.688 2.18 2.695.867 5.203.867 1.477 0 3.14-.492 1.665-.493 2.696-1.453 1.078-1.032 1.594-2.274.539-1.242.539-3.14 0-1.876-.61-3.094-.585-1.242-1.64-1.946-1.055-.726-2.555-.984-1.5-.281-3.234-.281h-2.11v-3.89h1.641q3.563 0 5.672-1.477 2.133-1.5 2.133-4.36 0-1.265-.54-2.203-.538-.96-1.5-1.57-1.007-.61-2.156-.844-1.148-.234-2.601-.234-2.227 0-4.735.797-2.507.796-4.734 2.25h-.234V254.8q1.664-.82 4.43-1.5 2.788-.703 5.39-.703 2.555 0 4.5.469 1.945.468 3.516 1.5 1.687 1.125 2.554 2.718.868 1.594.868 3.727 0 2.906-2.063 5.086-2.039 2.156-4.828 2.719v.328q1.125.187 2.578.797 1.453.586 2.461 1.476zM197.386 270.761q0 9.398-2.953 13.805-2.93 4.383-9.117 4.383-6.282 0-9.188-4.454-2.883-4.453-2.883-13.687 0-9.305 2.93-13.734 2.93-4.454 9.14-4.454 6.282 0 9.165 4.524 2.906 4.5 2.906 13.617zm-6.164 10.64q.82-1.898 1.101-4.452.305-2.579.305-6.188 0-3.562-.305-6.187-.28-2.625-1.125-4.454-.82-1.804-2.25-2.718-1.406-.914-3.632-.914-2.204 0-3.657.914-1.43.914-2.273 2.765-.797 1.735-1.102 4.524-.28 2.789-.28 6.117 0 3.656.257 6.117.258 2.461 1.101 4.406.774 1.828 2.18 2.79 1.43.96 3.774.96 2.203 0 3.656-.914 1.453-.914 2.25-2.765zM228.253 278.495q0 4.524-3.539 7.524-3.516 3-8.86 3-5.671 0-9.046-2.93-3.352-2.93-3.352-7.5 0-2.906 1.688-5.25 1.687-2.367 4.758-3.75v-.14q-2.813-1.5-4.172-3.282-1.336-1.781-1.336-4.453 0-3.937 3.234-6.562 3.234-2.625 8.227-2.625 5.226 0 8.343 2.507 3.118 2.508 3.118 6.375 0 2.368-1.477 4.665-1.477 2.273-4.336 3.562v.14q3.281 1.407 5.016 3.47 1.734 2.062 1.734 5.25zm-5.555-17.039q0-2.507-1.945-3.984-1.922-1.5-4.922-1.5-2.953 0-4.851 1.406-1.875 1.406-1.875 3.797 0 1.688.937 2.93.961 1.219 2.883 2.18.867.421 2.484 1.101 1.641.68 3.188 1.125 2.32-1.547 3.21-3.21.891-1.665.891-3.845zm.727 17.485q0-2.157-.961-3.446-.937-1.312-3.703-2.625-1.102-.515-2.414-.96-1.313-.446-3.492-1.243-2.11 1.149-3.399 3.117-1.265 1.97-1.265 4.454 0 3.164 2.18 5.226 2.179 2.063 5.53 2.063 3.422 0 5.461-1.758 2.063-1.758 2.063-4.828z"/></g><g aria-label="1797826" style="font-style:normal;font-weight:400;font-size:48px;line-height:1.25;font-family:sans-serif;text-align:center;letter-spacing:0;word-spacing:0;text-anchor:middle;fill:#fff;fill-opacity:1;stroke:none"><path d="M76.144 335.93h-18.89v-3.562h7.265v-23.39h-7.266v-3.188q1.477 0 3.164-.234 1.688-.258 2.555-.727 1.078-.586 1.687-1.476.633-.915.727-2.438h3.633v31.453h7.125zM108.792 306.259 92.995 335.93H87.98l16.804-30.797H84.91v-4.102h23.883ZM139.214 316.384q0 4.57-1.055 8.297-1.03 3.726-3.14 6.351-2.133 2.672-5.344 4.125-3.21 1.453-7.547 1.453-1.219 0-2.297-.14-1.078-.117-1.922-.399v-4.476h.235q.68.351 1.922.68 1.242.304 2.765.304 5.18 0 8.11-3.094 2.953-3.117 3.422-8.578-2.18 1.313-4.102 1.875-1.922.563-4.195.563-2.157 0-3.914-.422-1.735-.422-3.493-1.64-2.062-1.43-3.117-3.634-1.031-2.203-1.031-5.273 0-5.344 3.516-8.695 3.515-3.352 8.578-3.352 2.531 0 4.687.797 2.157.773 3.774 2.344 1.992 1.945 3.07 5.015 1.078 3.047 1.078 7.899zm-4.734-1.008q0-3.633-.75-5.836-.75-2.203-2.063-3.422-1.101-1.055-2.367-1.5-1.266-.469-2.742-.469-3.375 0-5.344 2.11-1.945 2.11-1.945 5.93 0 2.226.633 3.632.632 1.407 2.132 2.461 1.055.727 2.32.985 1.266.234 2.813.234 1.828 0 3.703-.492 1.875-.492 3.516-1.43.023-.492.047-.96.047-.493.047-1.243zM169.917 306.259 154.12 335.93h-5.015l16.804-30.797h-19.875v-4.102h23.883zM200.644 326.204q0 4.524-3.54 7.524-3.515 3-8.859 3-5.671 0-9.046-2.93-3.352-2.93-3.352-7.5 0-2.906 1.687-5.25 1.688-2.367 4.758-3.75v-.14q-2.812-1.5-4.172-3.282-1.336-1.781-1.336-4.453 0-3.938 3.235-6.563 3.234-2.625 8.226-2.625 5.227 0 8.344 2.508 3.117 2.508 3.117 6.375 0 2.367-1.476 4.664-1.477 2.274-4.336 3.563v.14q3.281 1.407 5.015 3.47 1.735 2.062 1.735 5.25zm-5.555-17.039q0-2.508-1.945-3.984-1.922-1.5-4.922-1.5-2.953 0-4.852 1.406-1.875 1.406-1.875 3.797 0 1.687.938 2.93.96 1.218 2.883 2.18.867.421 2.484 1.1 1.64.68 3.188 1.126 2.32-1.547 3.21-3.211.891-1.664.891-3.844zm.727 17.484q0-2.156-.961-3.445-.938-1.312-3.703-2.625-1.102-.516-2.414-.96-1.313-.446-3.493-1.243-2.109 1.148-3.398 3.117-1.266 1.969-1.266 4.453 0 3.164 2.18 5.227 2.18 2.062 5.531 2.062 3.422 0 5.461-1.757 2.063-1.758 2.063-4.829zM230.949 335.93h-23.625v-4.898l4.921-4.219q2.485-2.109 4.618-4.195 4.5-4.36 6.164-6.914 1.664-2.578 1.664-5.555 0-2.718-1.805-4.242-1.781-1.547-4.992-1.547-2.133 0-4.617.75-2.485.75-4.852 2.297h-.234v-4.922q1.664-.82 4.43-1.5 2.788-.68 5.39-.68 5.367 0 8.414 2.602 3.047 2.578 3.047 7.008 0 1.992-.516 3.727-.492 1.71-1.476 3.257-.914 1.454-2.156 2.86-1.22 1.406-2.977 3.117-2.508 2.46-5.18 4.781-2.672 2.297-4.992 4.266h18.774zM262.027 324.61q0 5.32-3.516 8.696-3.492 3.351-8.578 3.351-2.578 0-4.688-.797-2.109-.797-3.726-2.367-2.016-1.945-3.117-5.156-1.078-3.211-1.078-7.734 0-4.641.984-8.227 1.008-3.586 3.187-6.375 2.063-2.648 5.32-4.125 3.259-1.5 7.594-1.5 1.383 0 2.32.117.938.117 1.9.422v4.477h-.235q-.656-.352-1.992-.657-1.313-.328-2.696-.328-5.039 0-8.039 3.164-3 3.14-3.492 8.508 1.969-1.195 3.867-1.805 1.922-.632 4.43-.632 2.227 0 3.914.421 1.711.399 3.492 1.641 2.063 1.43 3.094 3.61 1.055 2.18 1.055 5.296zm-4.758.188q0-2.18-.656-3.61-.633-1.43-2.11-2.484-1.078-.75-2.39-.984-1.313-.235-2.743-.235-1.992 0-3.703.47-1.71.468-3.515 1.452-.047.516-.07 1.008-.024.469-.024 1.195 0 3.703.75 5.86.773 2.133 2.11 3.375 1.077 1.03 2.32 1.523 1.265.469 2.742.469 3.398 0 5.344-2.063 1.945-2.086 1.945-5.976z"/></g><g aria-label="VIEW" style="font-style:normal;font-weight:400;font-size:37.33333206px;line-height:1.25;font-family:sans-serif;text-align:center;letter-spacing:0;word-spacing:0;text-anchor:middle;fill:#fff;fill-opacity:1;stroke:none"><path d="m48.981 22.341-9.88 27.143h-4.813l-9.88-27.143h3.865l8.513 23.88 8.513-23.88zM62.671 49.484H51.952v-2.77h3.555V25.112h-3.555v-2.77h10.72v2.77h-3.555v21.602h3.554zM86.734 49.484H68.85V22.341h17.883v3.208H72.46v7.438h14.274v3.208H72.46v10.081h14.274zM124.067 22.341l-7.055 27.143h-4.065l-5.705-22.53-5.579 22.53H97.69l-7.182-27.143h3.7l5.706 22.568 5.615-22.568h3.664l5.67 22.787 5.669-22.787z"/></g><g aria-label="INVEST" style="font-style:normal;font-weight:400;font-size:32px;line-height:1.25;font-family:sans-serif;text-align:center;letter-spacing:0;word-spacing:0;text-anchor:middle;fill:#fff;fill-opacity:1;stroke:none"><path d="M145.453 47.875h-9.187V45.5h3.047V26.985h-3.047V24.61h9.187v2.375h-3.046V45.5h3.046zM168.5 47.875h-3.828l-11.031-20.812v20.812h-2.89V24.61h4.796l10.063 19v-19h2.89zM193.032 24.61l-8.47 23.265h-4.124l-8.469-23.265h3.313l7.296 20.468 7.297-20.468zM211.891 47.875h-15.328V24.61h15.328v2.75h-12.234v6.375h12.234v2.75h-12.234v8.64h12.234zM233.72 41.235q0 1.359-.642 2.687-.625 1.328-1.765 2.25-1.25 1-2.922 1.563-1.656.562-4 .562-2.516 0-4.531-.469-2-.468-4.078-1.39v-3.875H216q1.766 1.468 4.078 2.265 2.313.797 4.344.797 2.875 0 4.469-1.078 1.61-1.078 1.61-2.875 0-1.547-.766-2.281-.75-.735-2.297-1.14-1.172-.313-2.547-.516-1.36-.204-2.89-.516-3.094-.656-4.594-2.234-1.485-1.594-1.485-4.141 0-2.922 2.469-4.781 2.469-1.875 6.266-1.875 2.453 0 4.5.468 2.046.47 3.625 1.157v3.656h-.22q-1.327-1.125-3.5-1.86-2.155-.75-4.421-.75-2.484 0-4 1.032-1.5 1.031-1.5 2.656 0 1.453.75 2.281.75.828 2.64 1.266 1 .219 2.844.531 1.844.313 3.125.64 2.594.688 3.907 2.079 1.312 1.39 1.312 3.89zM255.282 27.36h-8.313v20.515h-3.094V27.36h-8.312v-2.75h19.719z"/></g></svg>